<svg width="32" height="32" viewBox="0 0 32 32" fill="none" xmlns="http://www.w3.org/2000/svg">
<g clip-path="url(#clip0_43_903)">
<path opacity="0.999" fill-rule="evenodd" clip-rule="evenodd" d="M6.65624 -0.03125C12.3645 -0.03125 18.0729 -0.03125 23.7812 -0.03125C23.9587 0.0429051 24.0941 0.167905 24.1875 0.34375C24.2292 0.96875 24.2292 1.59375 24.1875 2.21875C24.1118 2.45835 23.9555 2.60419 23.7187 2.65625C23.4687 2.65625 23.2187 2.65625 22.9687 2.65625C17.802 2.65625 12.6354 2.65625 7.46874 2.65625C7.19711 2.66661 6.9263 2.65619 6.65624 2.625C6.5208 2.57292 6.42705 2.47917 6.37499 2.34375C6.3333 1.65625 6.3333 0.96875 6.37499 0.28125C6.43905 0.144566 6.5328 0.0403988 6.65624 -0.03125Z" fill="#FE9637"/>
<path fill-rule="evenodd" clip-rule="evenodd" d="M23.7812 -0.03125C24.2812 -0.03125 24.7812 -0.03125 25.2812 -0.03125C25.4047 0.0403988 25.4984 0.144566 25.5625 0.28125C25.6042 0.96875 25.6042 1.65625 25.5625 2.34375C25.5104 2.47917 25.4167 2.57292 25.2812 2.625C25.0112 2.65619 24.7404 2.66661 24.4688 2.65625C24.2188 2.65625 23.9688 2.65625 23.7188 2.65625C23.9556 2.60419 24.1118 2.45835 24.1875 2.21875C24.2292 1.59375 24.2292 0.96875 24.1875 0.34375C24.0941 0.167905 23.9587 0.0429051 23.7812 -0.03125Z" fill="#FE860B"/>
<path opacity="0.998" fill-rule="evenodd" clip-rule="evenodd" d="M7.46876 2.65625C12.6354 2.65625 17.8021 2.65625 22.9688 2.65625C22.9792 5.78132 22.9688 8.90631 22.9375 12.0312C22.4758 15.3461 20.7154 17.669 17.6563 19C16.8859 19.2759 16.0943 19.453 15.2813 19.5312C14.5794 19.4848 13.8919 19.3598 13.2188 19.1562C12.2523 18.8336 11.3773 18.3544 10.5938 17.7188C10.0501 17.1856 9.5397 16.6231 9.06251 16.0312C8.64863 15.3909 8.28407 14.7242 7.96876 14.0312C7.72076 13.3017 7.56451 12.5517 7.50001 11.7812C7.46876 10.0314 7.45832 8.28137 7.46876 6.53125C7.55126 5.75429 7.55126 4.98346 7.46876 4.21875C7.46876 3.69792 7.46876 3.17708 7.46876 2.65625Z" fill="#F9C600"/>
<path fill-rule="evenodd" clip-rule="evenodd" d="M22.9688 2.65625C23.2188 2.65625 23.4688 2.65625 23.7188 2.65625C23.9688 2.65625 24.2188 2.65625 24.4688 2.65625C24.4688 3.17708 24.4688 3.69792 24.4688 4.21875C24.4688 4.98958 24.4688 5.76042 24.4688 6.53125C24.4792 8.28137 24.4688 10.0314 24.4375 11.7812C24.373 12.5517 24.2168 13.3017 23.9688 14.0312C23.3827 15.4706 22.5077 16.6998 21.3438 17.7188C20.5602 18.3544 19.6852 18.8336 18.7188 19.1562C18.1639 19.3131 17.6014 19.4381 17.0312 19.5312C16.4381 19.6016 15.8547 19.6016 15.2812 19.5312C16.0943 19.453 16.8859 19.2759 17.6562 19C20.7154 17.669 22.4758 15.3461 22.9375 12.0312C22.9688 8.90631 22.9792 5.78132 22.9688 2.65625Z" fill="#E8B800"/>
<path opacity="0.986" fill-rule="evenodd" clip-rule="evenodd" d="M7.46875 4.21875C7.55125 4.98345 7.55125 5.75429 7.46875 6.53125C6.40606 6.52081 5.34354 6.53125 4.28125 6.5625C4.14211 6.66375 4.05877 6.79912 4.03125 6.96875C4.23475 9.48925 5.23475 11.6247 7.03125 13.375C7.33738 13.6091 7.64988 13.8278 7.96875 14.0312C8.28406 14.7242 8.64862 15.3909 9.0625 16.0312C9.53969 16.6231 10.0501 17.1856 10.5938 17.7188C5.54453 16.3252 2.61745 13.0336 1.8125 7.84375C1.74799 7.21987 1.69591 6.59487 1.65625 5.96875C1.67422 5.58805 1.7263 5.21305 1.8125 4.84375C1.97759 4.55349 2.21718 4.35557 2.53125 4.25C4.17695 4.21875 5.82279 4.20834 7.46875 4.21875Z" fill="#FE9737"/>
<path opacity="0.986" fill-rule="evenodd" clip-rule="evenodd" d="M24.4688 4.21875C26.1147 4.20834 27.7606 4.21875 29.4062 4.25C29.7203 4.35557 29.9599 4.55349 30.125 4.84375C30.5026 8.52287 29.4817 11.752 27.0625 14.5312C25.4601 16.1194 23.5539 17.1819 21.3438 17.7188C22.5077 16.6998 23.3827 15.4706 23.9688 14.0312C25.6856 12.8726 26.8419 11.2893 27.4375 9.28125C27.6538 8.52262 27.8101 7.75181 27.9062 6.96875C27.8787 6.79912 27.7954 6.66375 27.6562 6.5625C26.5939 6.53125 25.5314 6.52081 24.4688 6.53125C24.4688 5.76042 24.4688 4.98958 24.4688 4.21875Z" fill="#FE9737"/>
<path fill-rule="evenodd" clip-rule="evenodd" d="M18.4687 9.28125C18.4658 9.4955 18.3929 9.683 18.25 9.84375C17.7267 10.2628 17.2684 10.7419 16.875 11.2812C16.8951 11.9866 16.9888 12.6845 17.1562 13.375C17.1287 13.5373 17.0871 13.6936 17.0312 13.8437C16.7861 13.7628 16.5569 13.6482 16.3437 13.5C16.1414 13.4145 15.933 13.3937 15.7187 13.4375C15.2494 13.7034 14.7702 13.9534 14.2812 14.1875C13.7537 14.2227 13.4829 13.9727 13.4687 13.4375C13.5457 12.8826 13.6186 12.3304 13.6875 11.7812C13.2961 11.2646 12.8586 10.7855 12.375 10.3437C12.2144 9.92493 12.329 9.60206 12.7187 9.375C13.2604 9.29168 13.8021 9.20831 14.3437 9.125C14.4271 9.08331 14.5104 9.04168 14.5937 9C14.8989 8.48356 15.1801 7.95231 15.4375 7.40625C15.7896 7.07837 16.1438 7.07837 16.5 7.40625C16.7574 7.95231 17.0386 8.48356 17.3437 9C17.7035 9.15318 18.0785 9.24693 18.4687 9.28125Z" fill="#F9F6F7"/>
<path fill-rule="evenodd" clip-rule="evenodd" d="M18.4688 9.28125C18.7739 9.26206 19.0656 9.31412 19.3438 9.4375C19.6229 9.63119 19.7166 9.89156 19.625 10.2187C19.1875 10.6979 18.75 11.1771 18.3125 11.6562C18.3101 12.2881 18.383 12.9131 18.5313 13.5312C18.4364 14.058 18.1239 14.2767 17.5938 14.1875C17.3814 14.1027 17.1939 13.9881 17.0313 13.8437C17.0871 13.6936 17.1288 13.5373 17.1563 13.375C16.9888 12.6845 16.8951 11.9866 16.875 11.2812C17.2684 10.7419 17.7268 10.2628 18.25 9.84375C18.3929 9.683 18.4658 9.4955 18.4688 9.28125Z" fill="#EFECED"/>
<path opacity="0.99" fill-rule="evenodd" clip-rule="evenodd" d="M13.2188 19.1562C13.8919 19.3598 14.5794 19.4848 15.2812 19.5312C15.8547 19.6016 16.4381 19.6016 17.0312 19.5312C16.1267 20.8792 15.8038 22.3584 16.0625 23.9688C16.1994 24.5584 16.3557 25.1417 16.5312 25.7188C17.0104 25.7188 17.4896 25.7188 17.9688 25.7188C16.6354 25.8021 15.3021 25.8021 13.9688 25.7188C14.9237 23.3844 14.6738 21.1969 13.2188 19.1562Z" fill="#FD9738"/>
<path fill-rule="evenodd" clip-rule="evenodd" d="M18.7187 19.1562C17.2637 21.1969 17.0137 23.3844 17.9687 25.7188C17.4896 25.7188 17.0104 25.7188 16.5312 25.7188C16.3557 25.1417 16.1994 24.5584 16.0625 23.9688C15.8037 22.3584 16.1267 20.8792 17.0312 19.5312C17.6014 19.4381 18.1639 19.3131 18.7187 19.1562Z" fill="#FE860B"/>
<path opacity="0.995" fill-rule="evenodd" clip-rule="evenodd" d="M13.9687 25.7187C15.3021 25.8021 16.6354 25.8021 17.9687 25.7187C18.0937 25.7187 18.2187 25.7187 18.3437 25.7187C19.0052 25.8486 19.474 26.2236 19.75 26.8437C19.8359 27.5069 19.8672 28.1736 19.8437 28.8437C16.8437 28.8437 13.8437 28.8437 10.8437 28.8437C10.8229 28.8437 10.8021 28.8437 10.7812 28.8437C10.7578 28.1736 10.7891 27.5069 10.875 26.8437C11.111 26.2203 11.5589 25.8557 12.2187 25.75C12.8017 25.7187 13.3851 25.7084 13.9687 25.7187Z" fill="#C52229"/>
<path fill-rule="evenodd" clip-rule="evenodd" d="M18.3438 25.7187C18.9099 25.6971 19.4724 25.7284 20.0313 25.8125C20.6547 26.0485 21.0193 26.4964 21.125 27.1562C21.1563 27.7184 21.1666 28.2809 21.1563 28.8437C17.7126 28.9269 14.2751 28.9269 10.8438 28.8437C13.8438 28.8437 16.8438 28.8437 19.8438 28.8437C19.8672 28.1736 19.8359 27.5069 19.75 26.8437C19.474 26.2236 19.0053 25.8486 18.3438 25.7187Z" fill="#9B181E"/>
<path opacity="0.997" fill-rule="evenodd" clip-rule="evenodd" d="M10.7813 28.8437C10.8021 28.8437 10.8229 28.8437 10.8438 28.8437C14.2751 28.9269 17.7126 28.9269 21.1563 28.8437C21.4896 28.8437 21.8229 28.8437 22.1563 28.8437C22.2564 28.9122 22.3502 28.9956 22.4375 29.0937C22.4792 29.9687 22.4792 30.8437 22.4375 31.7187C22.3944 31.8344 22.3215 31.9177 22.2188 31.9687C17.5938 31.9687 12.9688 31.9687 8.34376 31.9687C8.30488 31.8983 8.25282 31.8358 8.18751 31.7812C8.12707 30.8379 8.14794 29.9004 8.25001 28.9687C8.29688 28.9296 8.34901 28.8984 8.40626 28.875C9.19763 28.8437 9.98932 28.8333 10.7813 28.8437Z" fill="#F1333B"/>
<path fill-rule="evenodd" clip-rule="evenodd" d="M22.1562 28.8437C22.6151 28.8334 23.0734 28.8437 23.5312 28.875C23.6458 28.9062 23.7188 28.9792 23.75 29.0937C23.7917 29.9896 23.7917 30.8854 23.75 31.7812C23.6847 31.8358 23.6326 31.8983 23.5938 31.9687C23.1354 31.9687 22.6771 31.9687 22.2188 31.9687C22.3215 31.9177 22.3944 31.8344 22.4375 31.7187C22.4792 30.8437 22.4792 29.9687 22.4375 29.0937C22.3502 28.9956 22.2564 28.9122 22.1562 28.8437Z" fill="#C52229"/>
</g>
<defs>
<clipPath id="clip0_43_903">
<rect width="32" height="32" fill="white"/>
</clipPath>
</defs>
</svg>
