<svg width="33" height="32" viewBox="0 0 33 32" fill="none" xmlns="http://www.w3.org/2000/svg">
  <g filter="url(#filter0_d_43_936)">
    <path d="M13.0275 2.99037C12.907 2.78957 12.69 2.6667 12.4558 2.6667H6.01074C5.49255 2.6667 5.17247 3.23202 5.43908 3.67637L12.6391 15.6764C12.7596 15.8772 12.9766 16 13.2107 16H19.6558C20.174 16 20.4941 15.4347 20.2275 14.9904L13.0275 2.99037Z" fill="#C52229" />
    <path fill-rule="evenodd" clip-rule="evenodd" d="M12.4559 2.00003H6.01077C4.97438 2.00003 4.33423 3.13066 4.86745 4.01936L12.0674 16.0194C12.3084 16.421 12.7424 16.6667 13.2108 16.6667H19.6558C20.6922 16.6667 21.3324 15.5361 20.7992 14.6474L13.5992 2.64737C13.3582 2.24576 12.9242 2.00003 12.4559 2.00003ZM12.4559 2.6667C12.69 2.6667 12.907 2.78956 13.0275 2.99037L20.2275 14.9904C20.4941 15.4347 20.174 16 19.6558 16H13.2108C12.9766 16 12.7596 15.8772 12.6391 15.6764L5.43911 3.67636C5.1725 3.23201 5.49258 2.6667 6.01077 2.6667H12.4559Z" fill="#9B0F15" />
    <path d="M19.9724 2.99037C20.0929 2.78957 20.3099 2.6667 20.5441 2.6667H26.9892C27.5074 2.6667 27.8274 3.23202 27.5608 3.67637L20.3608 15.6764C20.2403 15.8772 20.0233 16 19.7892 16H13.3441C12.8259 16 12.5058 15.4347 12.7724 14.9904L19.9724 2.99037Z" fill="#F1333B" />
    <path fill-rule="evenodd" clip-rule="evenodd" d="M20.5441 2.00003H26.9892C28.0256 2.00003 28.6657 3.13066 28.1325 4.01936L20.9325 16.0194C20.6915 16.421 20.2575 16.6667 19.7892 16.6667H13.3441C12.3077 16.6667 11.6675 15.5361 12.2008 14.6474L19.4008 2.64737C19.6417 2.24576 20.0757 2.00003 20.5441 2.00003ZM20.5441 2.6667C20.3099 2.6667 20.0929 2.78956 19.9724 2.99037L12.7724 14.9904C12.5058 15.4347 12.8259 16 13.3441 16H19.7892C20.0233 16 20.2403 15.8772 20.3608 15.6764L27.5608 3.67636C27.8274 3.23201 27.5074 2.6667 26.9892 2.6667H20.5441Z" fill="#9B0F15" />
    <path fill-rule="evenodd" clip-rule="evenodd" d="M20.6674 3.04511C20.8266 3.13755 20.8807 3.34155 20.7883 3.50075L17.7883 8.66742C17.6958 8.82662 17.4918 8.88074 17.3326 8.7883C17.1734 8.69586 17.1193 8.49186 17.2118 8.33266L20.2118 3.16599C20.3042 3.00679 20.5082 2.95267 20.6674 3.04511Z" fill="#FE666D" />
    <path fill-rule="evenodd" clip-rule="evenodd" d="M5.9993 3.04511C5.84009 3.13755 5.78597 3.34155 5.87841 3.50075L8.87841 8.66742C8.97085 8.82662 9.17485 8.88074 9.33405 8.7883C9.49325 8.69586 9.54738 8.49186 9.45494 8.33266L6.45494 3.16599C6.3625 3.00679 6.1585 2.95267 5.9993 3.04511Z" fill="#DF3840" />
    <path d="M12.3334 3.76046C12.3334 3.99633 12.1469 4.18754 11.9168 4.18754C11.6866 4.18754 11.5001 3.99633 11.5001 3.76046C11.5001 3.52459 11.6866 3.33337 11.9168 3.33337C12.1469 3.33337 12.3334 3.52459 12.3334 3.76046Z" fill="#AA161D" />
    <path d="M10.87 3.86462C10.87 4.15803 10.638 4.39587 10.3517 4.39587C10.0655 4.39587 9.83344 4.15803 9.83344 3.86462C9.83344 3.57122 10.0655 3.33337 10.3517 3.33337C10.638 3.33337 10.87 3.57122 10.87 3.86462Z" fill="#AA161D" />
    <path d="M12.1667 5.38545C12.1667 5.67885 11.9347 5.9167 11.6485 5.9167C11.3622 5.9167 11.1302 5.67885 11.1302 5.38545C11.1302 5.09205 11.3622 4.8542 11.6485 4.8542C11.9347 4.8542 12.1667 5.09205 12.1667 5.38545Z" fill="#AA161D" />
    <path d="M13.3517 4.6615C13.3517 4.8082 13.2357 4.92712 13.0926 4.92712C12.9495 4.92712 12.8334 4.8082 12.8334 4.6615C12.8334 4.5148 12.9495 4.39587 13.0926 4.39587C13.2357 4.39587 13.3517 4.5148 13.3517 4.6615Z" fill="#AA161D" />
    <path d="M10.6109 5.11983C10.6109 5.26653 10.4948 5.38545 10.3517 5.38545C10.2086 5.38545 10.0926 5.26653 10.0926 5.11983C10.0926 4.97313 10.2086 4.8542 10.3517 4.8542C10.4948 4.8542 10.6109 4.97313 10.6109 5.11983Z" fill="#AA161D" />
    <path d="M9.16667 3.49483C9.16667 3.64153 9.05065 3.76045 8.90752 3.76045C8.7644 3.76045 8.64838 3.64153 8.64838 3.49483C8.64838 3.34813 8.7644 3.2292 8.90752 3.2292C9.05065 3.2292 9.16667 3.34813 9.16667 3.49483Z" fill="#AA161D" />
    <path d="M13.0926 6.51566C13.0926 6.66236 12.9765 6.78128 12.8334 6.78128C12.6903 6.78128 12.5743 6.66236 12.5743 6.51566C12.5743 6.36895 12.6903 6.25003 12.8334 6.25003C12.9765 6.25003 13.0926 6.36895 13.0926 6.51566Z" fill="#AA161D" />
    <path d="M11.7592 6.78128C11.7592 6.92798 11.6432 7.04691 11.5001 7.04691C11.357 7.04691 11.2409 6.92798 11.2409 6.78128C11.2409 6.63458 11.357 6.51566 11.5001 6.51566C11.6432 6.51566 11.7592 6.63458 11.7592 6.78128Z" fill="#AA161D" />
    <path d="M14.3436 5.81774C14.3436 6.05649 14.1548 6.25004 13.9218 6.25004C13.6889 6.25004 13.5001 6.05649 13.5001 5.81774C13.5001 5.579 13.6889 5.38545 13.9218 5.38545C14.1548 5.38545 14.3436 5.579 14.3436 5.81774Z" fill="#AA161D" />
    <path d="M14.8934 7.04691C14.8934 7.19361 14.7774 7.31253 14.6342 7.31253C14.4911 7.31253 14.3751 7.19361 14.3751 7.04691C14.3751 6.9002 14.4911 6.78128 14.6342 6.78128C14.7774 6.78128 14.8934 6.9002 14.8934 7.04691Z" fill="#AA161D" />
    <path d="M25.5 20.3333C25.5 25.3039 21.4706 29.3333 16.5 29.3333C11.5294 29.3333 7.5 25.3039 7.5 20.3333C7.5 15.3627 11.5294 11.3333 16.5 11.3333C21.4706 11.3333 25.5 15.3627 25.5 20.3333Z" fill="#FFBB0D" />
    <path fill-rule="evenodd" clip-rule="evenodd" d="M26.1667 20.3333C26.1667 25.6721 21.8388 30 16.5 30C11.1613 30 6.83334 25.6721 6.83334 20.3333C6.83334 14.9946 11.1613 10.6666 16.5 10.6666C21.8388 10.6666 26.1667 14.9946 26.1667 20.3333ZM16.5 29.3333C21.4706 29.3333 25.5 25.3039 25.5 20.3333C25.5 15.3627 21.4706 11.3333 16.5 11.3333C11.5294 11.3333 7.50001 15.3627 7.50001 20.3333C7.50001 25.3039 11.5294 29.3333 16.5 29.3333Z" fill="#E89B05" />
    <path fill-rule="evenodd" clip-rule="evenodd" d="M8.16668 20.6666C7.98258 20.6666 7.83335 20.5174 7.83335 20.3333C7.83335 15.5468 11.7135 11.6666 16.5 11.6666C16.6841 11.6666 16.8333 11.8159 16.8333 12C16.8333 12.1841 16.6841 12.3333 16.5 12.3333C12.0817 12.3333 8.50001 15.915 8.50001 20.3333C8.50001 20.5174 8.35077 20.6666 8.16668 20.6666Z" fill="#E8AA0A" />
    <path fill-rule="evenodd" clip-rule="evenodd" d="M24.8334 20C25.0174 20 25.1667 20.1492 25.1667 20.3333C25.1667 25.1198 21.2865 29 16.5 29C16.3159 29 16.1667 28.8507 16.1667 28.6666C16.1667 28.4825 16.3159 28.3333 16.5 28.3333C20.9183 28.3333 24.5 24.7516 24.5 20.3333C24.5 20.1492 24.6493 20 24.8334 20Z" fill="#E8AA0A" />
    <path d="M23.1667 20.3333C23.1667 24.0152 20.1819 27 16.5 27C12.8181 27 9.83334 24.0152 9.83334 20.3333C9.83334 16.6514 12.8181 13.6666 16.5 13.6666C20.1819 13.6666 23.1667 16.6514 23.1667 20.3333Z" fill="#FFDD28" />
    <path fill-rule="evenodd" clip-rule="evenodd" d="M23.8334 20.3333C23.8334 24.3834 20.5501 27.6666 16.5 27.6666C12.4499 27.6666 9.16669 24.3834 9.16669 20.3333C9.16669 16.2832 12.4499 13 16.5 13C20.5501 13 23.8334 16.2832 23.8334 20.3333ZM16.5 27C20.1819 27 23.1667 24.0152 23.1667 20.3333C23.1667 16.6514 20.1819 13.6666 16.5 13.6666C12.8181 13.6666 9.83335 16.6514 9.83335 20.3333C9.83335 24.0152 12.8181 27 16.5 27Z" fill="#E89B05" />
    <path fill-rule="evenodd" clip-rule="evenodd" d="M16.5 26C19.6296 26 22.1667 23.4629 22.1667 20.3333C22.1667 20.1492 22.3159 20 22.5 20C22.6841 20 22.8333 20.1492 22.8333 20.3333C22.8333 23.8311 19.9978 26.6666 16.5 26.6666C16.3159 26.6666 16.1667 26.5174 16.1667 26.3333C16.1667 26.1492 16.3159 26 16.5 26Z" fill="#ECC704" />
    <path fill-rule="evenodd" clip-rule="evenodd" d="M16.5 14.6666C13.3704 14.6666 10.8334 17.2037 10.8334 20.3333C10.8334 20.5174 10.6841 20.6666 10.5 20.6666C10.3159 20.6666 10.1667 20.5174 10.1667 20.3333C10.1667 16.8355 13.0022 14 16.5 14C16.6841 14 16.8334 14.1492 16.8334 14.3333C16.8334 14.5174 16.6841 14.6666 16.5 14.6666Z" fill="#FFEF9C" />
  </g>
  <defs>
    <filter id="filter0_d_43_936" x="0.5" y="0" width="32.6667" height="32.6667" filterUnits="userSpaceOnUse" color-interpolation-filters="sRGB">
      <feFlood flood-opacity="0" result="BackgroundImageFix" />
      <feColorMatrix in="SourceAlpha" type="matrix" values="0 0 0 0 0 0 0 0 0 0 0 0 0 0 0 0 0 0 127 0" result="hardAlpha" />
      <feOffset dx="0.666667" dy="0.666667" />
      <feColorMatrix type="matrix" values="0 0 0 0 0.637788 0 0 0 0 0.545996 0 0 0 0 0.47948 0 0 0 0.2 0" />
      <feBlend mode="normal" in2="BackgroundImageFix" result="effect1_dropShadow_43_936" />
      <feBlend mode="normal" in="SourceGraphic" in2="effect1_dropShadow_43_936" result="shape" />
    </filter>
  </defs>
</svg>