<svg width="33" height="32" viewBox="0 0 33 32" fill="none" xmlns="http://www.w3.org/2000/svg">
  <g clip-path="url(#clip0_43_941)">
    <path opacity="0.99" fill-rule="evenodd" clip-rule="evenodd" d="M0.46875 3.09375C11.1354 3.09375 21.8021 3.09375 32.4688 3.09375C32.4688 11.6771 32.4688 20.2604 32.4688 28.8438C21.8021 28.8438 11.1354 28.8438 0.46875 28.8438C0.46875 20.2604 0.46875 11.6771 0.46875 3.09375Z" fill="#FECC75" />
    <path fill-rule="evenodd" clip-rule="evenodd" d="M27.7188 26.5312C23.9819 26.6144 20.2319 26.656 16.4688 26.6562C12.7056 26.656 8.95563 26.6144 5.21875 26.5312C5.01879 24.9981 4.14379 24.1647 2.59375 24.0312C2.59375 18.6562 2.59375 13.2812 2.59375 7.90625C4.20072 7.75763 5.07572 6.88262 5.21875 5.28125C12.7188 5.28125 20.2188 5.28125 27.7188 5.28125C27.7728 6.45012 28.3353 7.27306 29.4062 7.75C29.7059 7.87706 30.0184 7.92913 30.3438 7.90625C30.3438 13.2812 30.3438 18.6562 30.3438 24.0312C29.1986 24.0825 28.3757 24.6242 27.875 25.6562C27.763 25.9375 27.7109 26.2292 27.7188 26.5312Z" fill="#F1EAD8" />
    <path fill-rule="evenodd" clip-rule="evenodd" d="M13.0312 8.34375C13.3389 8.36869 13.5784 8.51456 13.75 8.78125C14.0802 9.25744 14.4344 9.71575 14.8125 10.1562C15.161 9.73 15.4943 9.2925 15.8125 8.84375C15.9509 8.64281 16.128 8.48656 16.3437 8.375C16.5365 8.33556 16.7031 8.38762 16.8437 8.53125C17.2827 9.06394 17.7098 9.60562 18.125 10.1562C18.5701 9.56519 19.0389 8.99225 19.5312 8.4375C19.8047 8.30737 20.0442 8.35944 20.25 8.59375C20.8366 9.32606 21.3991 10.0761 21.9375 10.8438C21.9635 11.4617 21.6822 11.6596 21.0937 11.4375C20.6681 10.8764 20.2306 10.3243 19.7812 9.78125C19.3362 10.3276 18.8987 10.8798 18.4687 11.4375C18.1471 11.594 17.8659 11.5419 17.625 11.2812C17.2516 10.7723 16.8661 10.2723 16.4687 9.78125C16.0237 10.3276 15.5862 10.8798 15.1562 11.4375C14.9561 11.5302 14.7477 11.5511 14.5312 11.5C14.0654 10.9328 13.6071 10.3599 13.1562 9.78125C12.7069 10.3243 12.2694 10.8764 11.8437 11.4375C11.1582 11.6476 10.8978 11.4081 11.0625 10.7188C11.6042 10.0104 12.1458 9.30206 12.6875 8.59375C12.8007 8.50144 12.9153 8.41813 13.0312 8.34375Z" fill="#6FA8D6" />
    <path fill-rule="evenodd" clip-rule="evenodd" d="M5.90625 13.3437C12.9062 13.3333 19.9062 13.3437 26.9062 13.375C27.1601 13.4307 27.2851 13.5869 27.2812 13.8437C27.2969 14.0939 27.1927 14.271 26.9687 14.375C19.9687 14.4167 12.9687 14.4167 5.96875 14.375C5.67781 14.1939 5.58406 13.9336 5.6875 13.5937C5.77347 13.5184 5.84639 13.4351 5.90625 13.3437Z" fill="#6DA8D6" />
    <path fill-rule="evenodd" clip-rule="evenodd" d="M8.09375 15.4687C13.6771 15.4583 19.2604 15.4687 24.8438 15.5C25.1631 15.7104 25.236 15.9916 25.0625 16.3437C24.9893 16.4308 24.8956 16.4829 24.7813 16.5C19.2188 16.5417 13.6563 16.5417 8.09375 16.5C7.77444 16.2896 7.7015 16.0084 7.875 15.6562C7.96988 15.6148 8.04281 15.5523 8.09375 15.4687Z" fill="#6DA8D6" />
    <path fill-rule="evenodd" clip-rule="evenodd" d="M16.2813 18.8438C17.4608 18.8469 18.2212 19.4094 18.5625 20.5312C18.6239 22.3241 17.7593 23.1678 15.9688 23.0625C14.7667 22.6491 14.2354 21.8054 14.375 20.5312C14.6722 19.5774 15.3076 19.0149 16.2813 18.8438Z" fill="#FF6E1E" />
    <path fill-rule="evenodd" clip-rule="evenodd" d="M8.03125 20.4687C9.48975 20.4583 10.9481 20.4687 12.4062 20.5C12.6918 20.6588 12.7856 20.8984 12.6875 21.2187C12.5852 21.3631 12.4497 21.4569 12.2812 21.5C10.8854 21.5417 9.48956 21.5417 8.09375 21.5C7.80281 21.3189 7.70906 21.0586 7.8125 20.7187C7.8985 20.6434 7.97137 20.5601 8.03125 20.4687Z" fill="#6FA9D6" />
    <path fill-rule="evenodd" clip-rule="evenodd" d="M20.5312 20.4687C21.9689 20.4583 23.4064 20.4687 24.8437 20.5C25.139 20.6522 25.2327 20.8918 25.125 21.2187C25.0413 21.3809 24.9059 21.4746 24.7187 21.5C23.3646 21.5417 22.0104 21.5417 20.6562 21.5C20.2211 21.3544 20.1065 21.0731 20.3125 20.6562C20.3841 20.5852 20.457 20.5227 20.5312 20.4687Z" fill="#6FA8D6" />
    <path fill-rule="evenodd" clip-rule="evenodd" d="M5.21875 26.5312C8.95563 26.6144 12.7056 26.656 16.4688 26.6562C20.2319 26.656 23.9819 26.6144 27.7188 26.5312C27.7188 26.5938 27.7188 26.6562 27.7188 26.7188C20.2188 26.7188 12.7188 26.7188 5.21875 26.7188C5.21875 26.6562 5.21875 26.5938 5.21875 26.5312Z" fill="#FAD591" />
  </g>
  <defs>
    <clipPath id="clip0_43_941">
      <rect width="32" height="32" fill="white" transform="translate(0.5)" />
    </clipPath>
  </defs>
</svg>