<svg width="32" height="32" viewBox="0 0 32 32" fill="none" xmlns="http://www.w3.org/2000/svg">
<g clip-path="url(#clip0_43_964)">
<path fill-rule="evenodd" clip-rule="evenodd" d="M3.09375 -0.03125C11.0104 -0.03125 18.9271 -0.03125 26.8438 -0.03125C26.9672 0.0403988 27.0609 0.144566 27.125 0.28125C27.1667 10.7396 27.1667 21.1979 27.125 31.6562C27.0558 31.8196 26.9412 31.9237 26.7812 31.9688C18.8854 31.9688 10.9896 31.9688 3.09375 31.9688C2.99102 31.9177 2.91811 31.8344 2.875 31.7188C2.83333 21.2188 2.83333 10.7188 2.875 0.21875C2.91811 0.103111 2.99102 0.0197772 3.09375 -0.03125Z" fill="#FDA265"/>
<path opacity="0.988" fill-rule="evenodd" clip-rule="evenodd" d="M26.8438 -0.03125C27.5104 -0.03125 28.1771 -0.03125 28.8438 -0.03125C28.9465 0.0197772 29.0194 0.103111 29.0625 0.21875C29.1042 10.7188 29.1042 21.2188 29.0625 31.7188C29.0194 31.8344 28.9465 31.9177 28.8438 31.9688C28.1562 31.9688 27.4688 31.9688 26.7812 31.9688C26.9412 31.9237 27.0558 31.8196 27.125 31.6562C27.1667 21.1979 27.1667 10.7396 27.125 0.28125C27.0609 0.144566 26.9672 0.0403988 26.8438 -0.03125Z" fill="#FD8566"/>
<path fill-rule="evenodd" clip-rule="evenodd" d="M26.9688 2.03125C25.6979 3.32292 24.4271 4.61458 23.1562 5.90625C23.1069 5.88858 23.0653 5.85733 23.0312 5.8125C22.3857 5.78126 21.7399 5.77085 21.0938 5.78125C17.006 5.76066 12.9226 5.78149 8.84375 5.84375C7.54694 4.64084 6.27612 3.40125 5.03125 2.125C4.9941 2.09598 4.95243 2.08556 4.90625 2.09375C4.94111 2.01313 5.00361 1.96105 5.09375 1.9375C12.3438 1.89583 19.5938 1.89583 26.8438 1.9375C26.901 1.9549 26.9426 1.98615 26.9688 2.03125Z" fill="#FBDB63"/>
<path fill-rule="evenodd" clip-rule="evenodd" d="M26.9688 2.03125C27.0073 2.03817 27.0386 2.059 27.0625 2.09375C27.1042 11.3438 27.1042 20.5938 27.0625 29.8438C27.0386 29.8785 27.0073 29.8993 26.9688 29.9062C25.6979 28.6146 24.4271 27.3229 23.1562 26.0312C23.1867 25.9704 23.2179 25.9079 23.25 25.8438C23.2917 19.2396 23.2917 12.6354 23.25 6.03125C23.2052 5.99724 23.1739 5.95557 23.1562 5.90625C24.4271 4.61458 25.6979 3.32292 26.9688 2.03125Z" fill="#FCBE64"/>
<path fill-rule="evenodd" clip-rule="evenodd" d="M4.90625 2.09375C4.95243 2.08556 4.9941 2.09598 5.03125 2.125C6.27612 3.40125 7.54694 4.64084 8.84375 5.84375C8.80487 5.91416 8.75281 5.97666 8.6875 6.03125C8.64581 12.6354 8.64581 19.2396 8.6875 25.8438C8.72887 25.9365 8.781 26.0198 8.84375 26.0938C7.54694 27.2967 6.27612 28.5363 5.03125 29.8125C4.9941 29.8415 4.95243 29.8519 4.90625 29.8438C4.86115 29.8176 4.8299 29.776 4.8125 29.7188C4.77083 20.5521 4.77083 11.3854 4.8125 2.21875C4.8299 2.16151 4.86115 2.11985 4.90625 2.09375Z" fill="#FDF47B"/>
<path fill-rule="evenodd" clip-rule="evenodd" d="M21.0938 5.78125C21.1772 5.87565 21.2502 5.97981 21.3125 6.09375C21.3542 12.6771 21.3542 19.2604 21.3125 25.8438C21.2502 25.9577 21.1772 26.0619 21.0938 26.1563C17.006 26.1769 12.9226 26.156 8.84375 26.0938C8.781 26.0198 8.72888 25.9365 8.6875 25.8438C8.64581 19.2396 8.64581 12.6354 8.6875 6.03125C8.75281 5.97667 8.80488 5.91417 8.84375 5.84375C12.9226 5.78149 17.006 5.76066 21.0938 5.78125Z" fill="#FEFEFE"/>
<path fill-rule="evenodd" clip-rule="evenodd" d="M21.0938 5.78124C21.7399 5.77084 22.3858 5.78126 23.0312 5.81249C23.0653 5.85732 23.1069 5.88857 23.1562 5.90624C23.1739 5.95556 23.2052 5.99723 23.25 6.03124C23.2917 12.6354 23.2917 19.2396 23.25 25.8437C23.2179 25.9079 23.1867 25.9704 23.1562 26.0312C23.1069 26.0489 23.0653 26.0802 23.0312 26.125C22.3858 26.1562 21.7399 26.1666 21.0938 26.1562C21.1772 26.0619 21.2502 25.9577 21.3125 25.8437C21.3542 19.2604 21.3542 12.6771 21.3125 6.09374C21.2502 5.9798 21.1772 5.87564 21.0938 5.78124Z" fill="#F2F1F1"/>
<path fill-rule="evenodd" clip-rule="evenodd" d="M12.7812 8.21874C14.9064 8.20831 17.0314 8.21874 19.1562 8.24999C19.5056 8.58812 19.4639 8.87981 19.0312 9.12499C16.9687 9.16668 14.9062 9.16668 12.8437 9.12499C12.5291 8.93668 12.4561 8.67624 12.625 8.34374C12.6872 8.30837 12.7392 8.26668 12.7812 8.21874Z" fill="#686D76"/>
<path fill-rule="evenodd" clip-rule="evenodd" d="M12.8438 10.0937C14.9064 10.0833 16.9689 10.0937 19.0313 10.125C19.478 10.3589 19.5197 10.6505 19.1563 11C17.0104 11.0417 14.8646 11.0417 12.7188 11C12.4376 10.645 12.4793 10.3429 12.8438 10.0937Z" fill="#696E77"/>
<path fill-rule="evenodd" clip-rule="evenodd" d="M12.8438 12.0312C14.9064 12.0208 16.9689 12.0312 19.0313 12.0625C19.4773 12.2932 19.519 12.5849 19.1563 12.9375C17.0313 12.9792 14.9063 12.9792 12.7813 12.9375C12.5493 12.7804 12.4764 12.5617 12.5625 12.2812C12.6498 12.1831 12.7436 12.0997 12.8438 12.0312Z" fill="#686D76"/>
<path fill-rule="evenodd" clip-rule="evenodd" d="M15.5313 17.4687C17.2125 17.4179 18.3063 18.1887 18.8125 19.7812C19.0096 21.4777 18.3116 22.6131 16.7188 23.1875C15.1646 23.4781 14.0292 22.926 13.3125 21.5312C12.7468 19.4537 13.4864 18.0996 15.5313 17.4687Z" fill="#F2F1F1"/>
<path fill-rule="evenodd" clip-rule="evenodd" d="M15.7187 19.4063C16.6261 19.389 17.0116 19.8265 16.875 20.7188C16.631 21.2364 16.2247 21.4344 15.6562 21.3125C15.1139 21.0506 14.9161 20.6235 15.0625 20.0313C15.1941 19.7223 15.4129 19.514 15.7187 19.4063Z" fill="#CFCFCF"/>
<path fill-rule="evenodd" clip-rule="evenodd" d="M23.1562 26.0312C24.4271 27.3229 25.6979 28.6146 26.9688 29.9062C26.9426 29.9514 26.901 29.9826 26.8438 30C19.5938 30.0417 12.3438 30.0417 5.09375 30C5.00361 29.9764 4.94111 29.9244 4.90625 29.8438C4.95243 29.8519 4.9941 29.8415 5.03125 29.8125C6.27612 28.5363 7.54694 27.2967 8.84375 26.0938C12.9226 26.156 17.006 26.1769 21.0938 26.1562C21.7399 26.1666 22.3857 26.1562 23.0312 26.125C23.0653 26.0802 23.1069 26.0489 23.1562 26.0312Z" fill="#FBDB63"/>
</g>
<defs>
<clipPath id="clip0_43_964">
<rect width="32" height="32" fill="white"/>
</clipPath>
</defs>
</svg>
