<svg width="33" height="32" viewBox="0 0 33 32" fill="none" xmlns="http://www.w3.org/2000/svg">
<path opacity="0.997" fill-rule="evenodd" clip-rule="evenodd" d="M16.4688 0.46875C16.4583 1.21904 16.4688 1.96904 16.5 2.71875C16.7359 2.89373 16.9755 3.0604 17.2188 3.21875C17.6847 3.5667 18.1638 3.90003 18.6562 4.21875C19.2 4.63687 19.7625 5.0327 20.3438 5.40625C20.833 5.78622 21.333 6.1508 21.8438 6.5C18.2708 6.552 14.7083 6.54156 11.1562 6.46875C11.3205 6.3445 11.4872 6.21947 11.6562 6.09375C12.8161 5.28954 13.9724 4.47704 15.125 3.65625C15.1447 3.56826 15.1239 3.48493 15.0625 3.40625C14.714 2.97999 14.3807 2.54249 14.0625 2.09375C14.0206 2.04672 13.9685 2.02589 13.9062 2.03125C14.7436 1.48609 15.5978 0.965256 16.4688 0.46875Z" fill="#4DA6D1"/>
<path opacity="0.986" fill-rule="evenodd" clip-rule="evenodd" d="M16.4687 0.46875C17.1049 0.796975 17.7091 1.17198 18.2812 1.59375C17.9271 2.13542 17.5729 2.67708 17.2187 3.21875C16.9755 3.0604 16.7359 2.89373 16.5 2.71875C16.4687 1.96904 16.4583 1.21904 16.4687 0.46875Z" fill="#1A8DC4"/>
<path opacity="0.995" fill-rule="evenodd" clip-rule="evenodd" d="M18.2812 1.59375C18.7922 1.83854 19.2713 2.1302 19.7188 2.46875C19.3637 3.05432 19.0095 3.63766 18.6562 4.21875C18.1638 3.90003 17.6847 3.5667 17.2188 3.21875C17.5729 2.67708 17.9271 2.13542 18.2812 1.59375Z" fill="#2693C7"/>
<path opacity="0.991" fill-rule="evenodd" clip-rule="evenodd" d="M19.7188 2.46875C20.2982 2.79868 20.8607 3.15285 21.4062 3.53125C21.0528 4.15454 20.6987 4.77954 20.3438 5.40625C19.7625 5.0327 19.2 4.63687 18.6562 4.21875C19.0095 3.63766 19.3637 3.05432 19.7188 2.46875Z" fill="#3299CA"/>
<path opacity="0.989" fill-rule="evenodd" clip-rule="evenodd" d="M13.9062 2.03125C13.9685 2.02589 14.0206 2.04672 14.0625 2.09375C14.3807 2.54249 14.714 2.97999 15.0625 3.40625C15.1239 3.48493 15.1447 3.56826 15.125 3.65625C13.9724 4.47704 12.8161 5.28954 11.6562 6.09375C11.1979 5.48958 10.7396 4.88542 10.2812 4.28125C11.4716 3.50864 12.6799 2.75864 13.9062 2.03125Z" fill="#369BCB"/>
<path opacity="0.998" fill-rule="evenodd" clip-rule="evenodd" d="M21.4062 3.53125C22.8757 4.38033 24.3132 5.27616 25.7188 6.21875C24.9079 6.62419 24.0954 7.03044 23.2812 7.4375C23.1409 7.82337 23.0159 8.20881 22.9062 8.59375C18.6146 8.59375 14.3229 8.59375 10.0312 8.59375C10.0617 8.92419 10.1242 9.24706 10.2188 9.5625C9.58012 9.74819 8.93431 9.90444 8.28125 10.0312C7.89119 8.77675 7.537 7.50594 7.21875 6.21875C8.05044 6.63456 8.88375 7.05125 9.71875 7.46875C10.1991 7.13381 10.6782 6.8005 11.1562 6.46875C14.7083 6.54156 18.2708 6.552 21.8438 6.5C21.333 6.1508 20.833 5.78622 20.3438 5.40625C20.6987 4.77954 21.0528 4.15454 21.4062 3.53125Z" fill="#48A4D0"/>
<path opacity="0.993" fill-rule="evenodd" clip-rule="evenodd" d="M10.2812 4.28125C10.7396 4.88542 11.1979 5.48958 11.6562 6.09375C11.4872 6.21948 11.3205 6.3445 11.1562 6.46875C10.6782 6.8005 10.1991 7.13381 9.71875 7.46875C8.88375 7.05125 8.05044 6.63456 7.21875 6.21875C8.2215 5.55036 9.24231 4.90452 10.2812 4.28125Z" fill="#2291C6"/>
<path opacity="0.99" fill-rule="evenodd" clip-rule="evenodd" d="M25.7188 6.21875C25.2703 7.90856 24.8119 9.59606 24.3438 11.2812C23.7321 11.0357 23.1071 10.8274 22.4688 10.6562C22.6244 9.97094 22.7702 9.28344 22.9062 8.59375C23.0159 8.20881 23.1409 7.82337 23.2812 7.4375C24.0954 7.03044 24.9079 6.62419 25.7188 6.21875Z" fill="#2090C5"/>
<path fill-rule="evenodd" clip-rule="evenodd" d="M22.9062 8.59375C22.7703 9.28344 22.6244 9.97094 22.4688 10.6562C22.4122 10.7006 22.3914 10.7631 22.4062 10.8438C18.4732 10.906 14.5357 10.9268 10.5938 10.9062C10.7138 11.6534 10.8805 12.3825 11.0938 13.0938C11.0699 13.1832 11.0074 13.2352 10.9062 13.25C10.3677 13.3847 9.82606 13.4994 9.28125 13.5938C8.91894 12.4156 8.58562 11.2281 8.28125 10.0312C8.93431 9.90444 9.58012 9.74819 10.2188 9.5625C10.1242 9.24706 10.0617 8.92419 10.0312 8.59375C14.3229 8.59375 18.6146 8.59375 22.9062 8.59375Z" fill="#41A0CE"/>
<path opacity="0.999" fill-rule="evenodd" clip-rule="evenodd" d="M22.4062 10.8438C22.2311 11.5774 22.0436 12.3066 21.8438 13.0312C18.2499 13.0105 14.6665 13.0313 11.0938 13.0938C10.8805 12.3825 10.7138 11.6534 10.5938 10.9062C14.5357 10.9268 18.4732 10.906 22.4062 10.8438Z" fill="#3B9ECC"/>
<path opacity="0.988" fill-rule="evenodd" clip-rule="evenodd" d="M22.4688 10.6562C23.1071 10.8274 23.7321 11.0357 24.3438 11.2812C23.9981 12.4433 23.6648 13.6099 23.3438 14.7812C22.7569 14.5856 22.1735 14.3772 21.5938 14.1562C21.7166 13.7898 21.7999 13.4148 21.8438 13.0312C22.0436 12.3066 22.2311 11.5774 22.4062 10.8438C22.3914 10.7631 22.4122 10.7006 22.4688 10.6562Z" fill="#2C96C9"/>
<path opacity="0.996" fill-rule="evenodd" clip-rule="evenodd" d="M21.8438 13.0313C21.7999 13.4148 21.7166 13.7898 21.5938 14.1563C22.1735 14.3773 22.7569 14.5856 23.3438 14.7813C23.1436 15.4652 22.9561 16.1527 22.7812 16.8438C22.2261 16.6518 21.6636 16.4851 21.0938 16.3438C21.0957 16.1276 21.1374 15.9193 21.2188 15.7188C18.0521 15.6354 14.8854 15.6354 11.7188 15.7188C11.8466 16.1745 11.9404 16.6328 12 17.0938C11.4611 17.2727 10.9091 17.3977 10.3438 17.4688C9.98956 16.1771 9.63537 14.8854 9.28125 13.5938C9.82606 13.4994 10.3677 13.3848 10.9062 13.25C11.0074 13.2353 11.0699 13.1832 11.0938 13.0938C14.6665 13.0313 18.2499 13.0105 21.8438 13.0313Z" fill="#359BCB"/>
<path opacity="0.997" fill-rule="evenodd" clip-rule="evenodd" d="M21.0938 16.3437C20.948 16.8852 20.8021 17.4269 20.6562 17.9687C20.6562 17.9062 20.6562 17.8437 20.6562 17.7812C17.8646 17.7812 15.0729 17.7812 12.2812 17.7812C12.3297 18.2736 12.4339 18.7527 12.5938 19.2187C12.1061 19.3928 11.6061 19.5282 11.0938 19.625C11.0468 19.6669 11.0259 19.719 11.0312 19.7812C10.7934 19.0184 10.5643 18.2476 10.3438 17.4687C10.9091 17.3977 11.4611 17.2727 12 17.0937C11.9404 16.6328 11.8466 16.1745 11.7188 15.7187C14.8854 15.6354 18.0521 15.6354 21.2188 15.7187C21.1374 15.9192 21.0957 16.1276 21.0938 16.3437Z" fill="#2E97C9"/>
<path opacity="0.991" fill-rule="evenodd" clip-rule="evenodd" d="M21.0938 16.3438C21.6636 16.4851 22.2261 16.6517 22.7812 16.8438C22.4358 18.0393 22.0816 19.2268 21.7188 20.4062C21.2188 20.2604 20.7188 20.1146 20.2188 19.9688C20.3485 19.2992 20.4943 18.6325 20.6562 17.9688C20.8021 17.4269 20.948 16.8852 21.0938 16.3438Z" fill="#3F9FCD"/>
<path opacity="0.998" fill-rule="evenodd" clip-rule="evenodd" d="M20.6563 17.9688C20.4943 18.6325 20.3485 19.2992 20.2188 19.9688C20.1979 19.9688 20.1771 19.9688 20.1563 19.9688C17.6979 19.9688 15.2396 19.9688 12.7813 19.9688C12.8028 20.2018 12.8444 20.4309 12.9063 20.6562C12.419 20.8406 11.919 20.9864 11.4063 21.0938C11.2534 20.6708 11.1284 20.2333 11.0313 19.7812C11.0259 19.719 11.0468 19.6669 11.0938 19.625C11.6061 19.5282 12.1061 19.3928 12.5938 19.2188C12.4339 18.7527 12.3297 18.2736 12.2813 17.7812C15.0729 17.7812 17.8646 17.7812 20.6563 17.7812C20.6563 17.8438 20.6563 17.9062 20.6563 17.9688Z" fill="#2894C7"/>
<path opacity="0.997" fill-rule="evenodd" clip-rule="evenodd" d="M20.1562 19.9688C19.8954 21.1582 19.6245 22.3457 19.3438 23.5312C18.3864 23.1778 17.4281 22.8236 16.4688 22.4688C15.0585 22.9813 13.6523 23.5021 12.25 24.0312C12.2261 23.9965 12.1948 23.9757 12.1562 23.9688C11.9064 23.0108 11.6564 22.0525 11.4062 21.0938C11.919 20.9864 12.419 20.8406 12.9062 20.6562C12.8444 20.4309 12.8027 20.2017 12.7812 19.9688C15.2396 19.9688 17.6979 19.9688 20.1562 19.9688Z" fill="#2191C6"/>
<path opacity="0.99" fill-rule="evenodd" clip-rule="evenodd" d="M20.1562 19.9688C20.1771 19.9688 20.1979 19.9688 20.2188 19.9688C20.7188 20.1146 21.2188 20.2604 21.7188 20.4062C21.416 21.5964 21.1035 22.7839 20.7812 23.9688C20.7406 23.9878 20.6989 24.0086 20.6562 24.0312C20.2169 23.8641 19.7794 23.6974 19.3438 23.5312C19.6245 22.3457 19.8954 21.1582 20.1562 19.9688Z" fill="#4BA5D0"/>
<path opacity="0.995" fill-rule="evenodd" clip-rule="evenodd" d="M19.3437 23.5312C19.7794 23.6974 20.2169 23.8641 20.6562 24.0312C20.6989 24.0086 20.7406 23.9878 20.7812 23.9688C21.807 24.3874 22.8486 24.7832 23.9062 25.1562C23.9686 25.759 23.9895 26.3631 23.9687 26.9688C23.3854 26.9688 22.8021 26.9688 22.2187 26.9688C22.2187 26.8229 22.2187 26.6771 22.2187 26.5312C22.3155 26.0265 22.128 25.6827 21.6562 25.5C18.1771 25.4583 14.6979 25.4583 11.2187 25.5C10.7933 25.7156 10.6266 26.0593 10.7187 26.5312C10.7187 26.6771 10.7187 26.8229 10.7187 26.9688C10.1354 26.9688 9.55206 26.9688 8.96874 26.9688C8.94799 26.3631 8.96887 25.759 9.03124 25.1562C10.0889 24.7832 11.1305 24.3874 12.1562 23.9688C12.1948 23.9757 12.2261 23.9965 12.25 24.0312C13.6522 23.5021 15.0585 22.9813 16.4687 22.4688C17.4281 22.8236 18.3864 23.1777 19.3437 23.5312Z" fill="#4B5B64"/>
<path fill-rule="evenodd" clip-rule="evenodd" d="M22.2187 26.5313C18.3854 26.5313 14.5521 26.5313 10.7187 26.5313C10.6266 26.0593 10.7933 25.7156 11.2187 25.5C14.6979 25.4583 18.1771 25.4583 21.6562 25.5C22.128 25.6828 22.3155 26.0265 22.2187 26.5313Z" fill="#FDBF46"/>
<path fill-rule="evenodd" clip-rule="evenodd" d="M10.7188 26.5312C14.5521 26.5312 18.3854 26.5312 22.2188 26.5312C22.2188 26.6771 22.2188 26.8229 22.2188 26.9688C22.2188 27.0938 22.2188 27.2188 22.2188 27.3438C18.3854 27.3438 14.5521 27.3438 10.7188 27.3438C10.7188 27.2188 10.7188 27.0938 10.7188 26.9688C10.7188 26.8229 10.7188 26.6771 10.7188 26.5312Z" fill="#FEC24E"/>
<path opacity="0.998" fill-rule="evenodd" clip-rule="evenodd" d="M8.96875 26.9688C9.55206 26.9688 10.1354 26.9688 10.7188 26.9688C10.7188 27.0938 10.7188 27.2188 10.7188 27.3438C10.7188 27.5521 10.7188 27.7604 10.7188 27.9688C10.6991 28.2107 10.7199 28.4399 10.7813 28.6562C10.8428 28.8956 10.9887 29.0727 11.2188 29.1875C14.6979 29.2292 18.1771 29.2292 21.6563 29.1875C21.9224 29.0986 22.089 28.9216 22.1563 28.6562C22.2176 28.4399 22.2384 28.2107 22.2188 27.9688C22.2188 27.7604 22.2188 27.5521 22.2188 27.3438C22.2188 27.2188 22.2188 27.0938 22.2188 26.9688C22.8021 26.9688 23.3854 26.9688 23.9688 26.9688C23.9688 28.0521 23.9688 29.1354 23.9688 30.2188C24.3028 30.2084 24.6361 30.2188 24.9688 30.25C25.026 30.2734 25.0781 30.3046 25.125 30.3438C25.2216 30.6279 25.2424 30.9196 25.1875 31.2188C25.1563 31.3333 25.0833 31.4062 24.9688 31.4375C19.3021 31.4792 13.6354 31.4792 7.96875 31.4375C7.85419 31.4062 7.78125 31.3333 7.75 31.2188C7.69506 30.9196 7.71594 30.6279 7.8125 30.3438C7.85938 30.3046 7.9115 30.2734 7.96875 30.25C8.30144 30.2188 8.63475 30.2084 8.96875 30.2188C8.96875 29.1354 8.96875 28.0521 8.96875 26.9688Z" fill="#495861"/>
<path fill-rule="evenodd" clip-rule="evenodd" d="M10.7812 28.6562C14.5729 28.6562 18.3646 28.6562 22.1562 28.6562C22.089 28.9216 21.9224 29.0986 21.6562 29.1875C18.1771 29.2292 14.6979 29.2292 11.2188 29.1875C10.9887 29.0727 10.8428 28.8956 10.7812 28.6562Z" fill="#FDC85F"/>
<path fill-rule="evenodd" clip-rule="evenodd" d="M10.7188 27.9688C14.5521 27.9688 18.3854 27.9688 22.2188 27.9688C22.2384 28.2107 22.2176 28.4399 22.1563 28.6562C18.3646 28.6562 14.5729 28.6562 10.7813 28.6562C10.7199 28.4399 10.6991 28.2107 10.7188 27.9688Z" fill="#FDC65A"/>
<path fill-rule="evenodd" clip-rule="evenodd" d="M10.7188 27.3438C14.5521 27.3438 18.3854 27.3438 22.2188 27.3438C22.2188 27.5521 22.2188 27.7604 22.2188 27.9688C18.3854 27.9688 14.5521 27.9688 10.7188 27.9688C10.7188 27.7604 10.7188 27.5521 10.7188 27.3438Z" fill="#FEC554"/>
</svg>
