<svg width="32" height="32" viewBox="0 0 32 32" fill="none" xmlns="http://www.w3.org/2000/svg">
<path fill-rule="evenodd" clip-rule="evenodd" d="M7.03125 1.46875C7.30319 1.84471 7.61569 2.17804 7.96875 2.46875C8.16431 2.69568 8.37269 2.91443 8.59375 3.125C13.4271 3.16667 18.2604 3.16667 23.0938 3.125C23.3148 2.91443 23.5232 2.69568 23.7188 2.46875C24.0788 2.17146 24.3913 1.83812 24.6562 1.46875C24.7268 1.60176 24.7372 1.74759 24.6875 1.90625C24.1769 5.09457 23.6665 8.28206 23.1562 11.4688C23.1111 11.4949 23.0799 11.5365 23.0625 11.5938C22.9967 11.9465 22.9447 12.3007 22.9062 12.6562C22.1976 12.6667 21.4893 12.6562 20.7812 12.625C20.9779 11.7679 21.1446 10.9033 21.2812 10.0312C21.6494 7.93038 22.0452 5.83663 22.4688 3.75C18.0521 3.70833 13.6354 3.70833 9.21875 3.75C9.46506 5.09213 9.71506 6.43587 9.96875 7.78125C9.36806 7.90462 8.74306 7.94631 8.09375 7.90625C8.07731 7.61725 8.01481 7.34637 7.90625 7.09375C7.58631 5.28539 7.27381 3.47289 6.96875 1.65625C6.97 1.57962 6.99081 1.51712 7.03125 1.46875Z" fill="#EDEDED"/>
<path fill-rule="evenodd" clip-rule="evenodd" d="M7.03125 1.46875C12.9062 1.46875 18.7812 1.46875 24.6562 1.46875C24.3913 1.83812 24.0788 2.17146 23.7188 2.46875C18.4688 2.46875 13.2188 2.46875 7.96875 2.46875C7.61569 2.17804 7.30319 1.84471 7.03125 1.46875Z" fill="#DDDCDB"/>
<path fill-rule="evenodd" clip-rule="evenodd" d="M7.96875 2.46875C13.2188 2.46875 18.4688 2.46875 23.7188 2.46875C23.5232 2.69568 23.3148 2.91443 23.0938 3.125C18.2604 3.16667 13.4271 3.16667 8.59375 3.125C8.37269 2.91443 8.16431 2.69568 7.96875 2.46875Z" fill="#E4E4E3"/>
<path fill-rule="evenodd" clip-rule="evenodd" d="M21.2812 10.0313C20.4424 10.1534 19.5883 10.1951 18.7188 10.1563C19.0463 9.77175 19.3588 9.37594 19.6562 8.96875C19.9121 8.63944 20.1829 8.31656 20.4688 8C19.3854 7.97919 18.3021 7.95831 17.2188 7.9375C16.8101 7.04738 16.3934 6.16193 15.9688 5.28125C15.5441 6.16193 15.1274 7.04738 14.7188 7.9375C13.6354 7.95831 12.5521 7.97919 11.4688 8C11.7957 8.31638 12.1082 8.63931 12.4062 8.96875C12.8204 9.456 13.2474 9.93513 13.6875 10.4063C13.7177 10.4655 13.7281 10.528 13.7188 10.5938C13.6311 10.8068 13.5894 11.0359 13.5938 11.2813C13.5354 11.348 13.5145 11.4313 13.5312 11.5313C12.5938 11.5313 11.6562 11.5313 10.7188 11.5313C10.7336 11.4506 10.7127 11.3881 10.6562 11.3438C10.4661 10.1433 10.2369 8.95581 9.96875 7.78125C9.71506 6.43588 9.46506 5.09213 9.21875 3.75C13.6354 3.70833 18.0521 3.70833 22.4688 3.75C22.0452 5.83663 21.6494 7.93038 21.2812 10.0313Z" fill="#DCDBDA"/>
<path fill-rule="evenodd" clip-rule="evenodd" d="M19.6562 8.96875C17.2396 8.96875 14.8229 8.96875 12.4062 8.96875C12.1082 8.63931 11.7957 8.31638 11.4688 8C12.5521 7.97919 13.6354 7.95831 14.7188 7.9375C15.1274 7.04737 15.5441 6.16193 15.9688 5.28125C16.3934 6.16193 16.8101 7.04737 17.2188 7.9375C18.3021 7.95831 19.3854 7.97919 20.4688 8C20.1829 8.31656 19.9121 8.63944 19.6562 8.96875Z" fill="#FDBE41"/>
<path fill-rule="evenodd" clip-rule="evenodd" d="M7.90625 7.09375C8.01481 7.34638 8.07731 7.61725 8.09375 7.90625C8.74306 7.94631 9.36806 7.90463 9.96875 7.78125C10.2369 8.95581 10.4661 10.1433 10.6562 11.3438C10.7038 11.7794 10.7871 12.2065 10.9062 12.625C10.2399 12.6563 9.57325 12.6667 8.90625 12.6563C8.80706 11.9769 8.68206 11.3102 8.53125 10.6563C8.29044 9.4825 8.08206 8.295 7.90625 7.09375Z" fill="#EAEAE9"/>
<path fill-rule="evenodd" clip-rule="evenodd" d="M12.4062 8.96875C14.8229 8.96875 17.2396 8.96875 19.6562 8.96875C19.3588 9.37594 19.0463 9.77175 18.7188 10.1562C18.5809 10.2727 18.4976 10.4186 18.4688 10.5938C17.6991 10.677 16.9074 10.7187 16.0938 10.7188C15.2801 10.7187 14.4884 10.677 13.7188 10.5938C13.7281 10.528 13.7177 10.4655 13.6875 10.4062C13.2474 9.93512 12.8204 9.456 12.4062 8.96875Z" fill="#FDC14A"/>
<path fill-rule="evenodd" clip-rule="evenodd" d="M13.7188 10.5938C14.4884 10.677 15.2801 10.7187 16.0938 10.7188C16.9074 10.7187 17.6991 10.677 18.4688 10.5938C18.5564 10.8068 18.5981 11.0359 18.5938 11.2812C18.5938 11.3646 18.5938 11.4479 18.5938 11.5312C16.9271 11.5312 15.2604 11.5312 13.5938 11.5312C13.5938 11.4479 13.5938 11.3646 13.5938 11.2812C13.5894 11.0359 13.6311 10.8068 13.7188 10.5938Z" fill="#FDC555"/>
<path opacity="0.996" fill-rule="evenodd" clip-rule="evenodd" d="M21.2812 10.0312C21.1446 10.9033 20.9779 11.7679 20.7812 12.625C21.4893 12.6562 22.1976 12.6667 22.9062 12.6562C22.9447 12.3007 22.9967 11.9465 23.0625 11.5938C23.0799 11.5365 23.1111 11.4949 23.1562 11.4688C22.4754 15.7412 21.7879 20.012 21.0938 24.2812C21.0538 24.2439 21.033 24.1919 21.0312 24.125C21.4267 21.8047 21.8017 19.4818 22.1562 17.1562C21.4268 17.1458 20.6976 17.1562 19.9688 17.1875C19.9158 17.4353 19.8533 17.6749 19.7812 17.9062C18.4902 17.8229 17.1777 17.7812 15.8438 17.7812C14.5097 17.7812 13.1972 17.8229 11.9062 17.9062C11.8342 17.6749 11.7717 17.4353 11.7188 17.1875C11.0524 17.1562 10.3858 17.1458 9.71875 17.1562C9.95475 18.6764 10.1839 20.1973 10.4062 21.7188C9.73525 18.047 9.11025 14.3595 8.53125 10.6562C8.68206 11.3102 8.80706 11.9769 8.90625 12.6562C9.57325 12.6667 10.2399 12.6562 10.9062 12.625C10.7871 12.2065 10.7038 11.7794 10.6562 11.3438C10.7127 11.3881 10.7336 11.4506 10.7188 11.5312C11.6562 11.5312 12.5938 11.5312 13.5312 11.5312C13.3965 12.1729 13.3028 12.8187 13.25 13.4688C14.1509 12.8776 15.0572 12.2943 15.9688 11.7188C16.9635 12.2942 17.9531 12.8776 18.9375 13.4688C18.8761 12.7257 18.7615 11.9965 18.5938 11.2812C18.5981 11.0359 18.5564 10.8068 18.4688 10.5938C18.4976 10.4186 18.5809 10.2727 18.7188 10.1562C19.5883 10.1951 20.4424 10.1534 21.2812 10.0312Z" fill="#E4E4E3"/>
<path fill-rule="evenodd" clip-rule="evenodd" d="M13.5938 11.2812C13.5938 11.3646 13.5938 11.4479 13.5938 11.5312C15.2604 11.5312 16.9271 11.5312 18.5938 11.5312C18.5938 11.4479 18.5938 11.3646 18.5938 11.2812C18.7615 11.9965 18.8761 12.7257 18.9375 13.4688C17.9531 12.8776 16.9635 12.2942 15.9688 11.7188C15.0572 12.2943 14.1509 12.8776 13.25 13.4688C13.3027 12.8188 13.3965 12.1729 13.5312 11.5312C13.5145 11.4313 13.5354 11.348 13.5938 11.2812Z" fill="#FDC85F"/>
<path fill-rule="evenodd" clip-rule="evenodd" d="M19.7812 17.9062C19.4577 19.7217 19.114 21.5342 18.75 23.3438C18.7081 23.3907 18.656 23.4116 18.5938 23.4062C17.7111 23.1189 16.8361 22.8064 15.9688 22.4688C14.9764 22.8481 13.9764 23.2023 12.9688 23.5312C12.5992 21.6626 12.2451 19.7876 11.9062 17.9062C13.1973 17.8229 14.5097 17.7812 15.8438 17.7812C17.1778 17.7812 18.4903 17.8229 19.7812 17.9062Z" fill="#E9E9E9"/>
<path fill-rule="evenodd" clip-rule="evenodd" d="M11.9062 17.9062C12.2451 19.7876 12.5992 21.6626 12.9688 23.5312C12.2746 23.8254 11.5663 24.0962 10.8438 24.3437C10.6661 23.4761 10.5203 22.6011 10.4062 21.7187C10.1839 20.1972 9.95475 18.6764 9.71875 17.1562C10.3857 17.1458 11.0524 17.1562 11.7188 17.1875C11.7717 17.4353 11.8342 17.6749 11.9062 17.9062Z" fill="#DCDBDA"/>
<path fill-rule="evenodd" clip-rule="evenodd" d="M21.0938 24.2812C21.0938 24.3021 21.0938 24.3229 21.0938 24.3437C20.246 24.0544 19.4127 23.7419 18.5938 23.4062C18.656 23.4116 18.7081 23.3907 18.75 23.3437C19.114 21.5342 19.4577 19.7217 19.7812 17.9062C19.8533 17.6749 19.9158 17.4353 19.9688 17.1875C20.6976 17.1562 21.4268 17.1458 22.1562 17.1562C21.8017 19.4818 21.4267 21.8047 21.0312 24.125C21.033 24.1919 21.0538 24.2439 21.0938 24.2812Z" fill="#DCDBDA"/>
<path fill-rule="evenodd" clip-rule="evenodd" d="M18.5938 23.4062C19.4127 23.7419 20.246 24.0544 21.0938 24.3438C21.1354 24.3438 21.1771 24.3438 21.2188 24.3438C17.7396 24.4271 14.2604 24.4271 10.7812 24.3438C10.8021 24.3438 10.8229 24.3438 10.8438 24.3438C11.5663 24.0962 12.2746 23.8254 12.9688 23.5312C13.9764 23.2023 14.9764 22.8481 15.9688 22.4688C16.8361 22.8064 17.7111 23.1189 18.5938 23.4062Z" fill="#42515A"/>
<path fill-rule="evenodd" clip-rule="evenodd" d="M10.7812 24.3438C14.2604 24.4271 17.7396 24.4271 21.2187 24.3438C21.9413 24.6264 22.6705 24.8972 23.4062 25.1562C23.4687 26.8433 23.4896 28.5308 23.4687 30.2188C18.4687 30.2188 13.4687 30.2188 8.46874 30.2188C8.44793 28.5308 8.46874 26.8433 8.53124 25.1562C9.28255 24.8846 10.0326 24.6138 10.7812 24.3438Z" fill="#4B5A63"/>
<path fill-rule="evenodd" clip-rule="evenodd" d="M13.4063 25.4687C13.4063 26.7187 13.4063 27.9687 13.4063 29.2187C12.4627 29.2479 11.5252 29.2167 10.5938 29.125C10.4291 29.0024 10.3145 28.8462 10.25 28.6562C10.2083 27.7604 10.2083 26.8646 10.25 25.9687C10.3411 25.815 10.4557 25.6796 10.5938 25.5625C11.5252 25.4708 12.4627 25.4396 13.4063 25.4687Z" fill="#FDBF46"/>
<path fill-rule="evenodd" clip-rule="evenodd" d="M13.4062 25.4688C14.1146 25.4688 14.8229 25.4688 15.5312 25.4688C15.5312 26.7188 15.5312 27.9688 15.5312 29.2188C14.8229 29.2188 14.1146 29.2188 13.4062 29.2188C13.4062 27.9688 13.4062 26.7188 13.4062 25.4688Z" fill="#FEC24E"/>
<path fill-rule="evenodd" clip-rule="evenodd" d="M15.5312 25.4688C16.1146 25.4688 16.6979 25.4688 17.2812 25.4688C17.2812 26.7188 17.2812 27.9688 17.2812 29.2188C16.6979 29.2188 16.1146 29.2188 15.5312 29.2188C15.5312 27.9688 15.5312 26.7188 15.5312 25.4688Z" fill="#FEC454"/>
<path fill-rule="evenodd" clip-rule="evenodd" d="M17.2812 25.4688C17.8854 25.4688 18.4896 25.4688 19.0938 25.4688C19.0938 26.7188 19.0938 27.9688 19.0938 29.2188C18.4896 29.2188 17.8854 29.2188 17.2812 29.2188C17.2812 27.9688 17.2812 26.7188 17.2812 25.4688Z" fill="#FEC65A"/>
<path fill-rule="evenodd" clip-rule="evenodd" d="M19.0938 25.4688C19.8485 25.4414 20.5985 25.4726 21.3438 25.5625C21.4818 25.6796 21.5964 25.815 21.6875 25.9688C21.7292 26.8646 21.7292 27.7604 21.6875 28.6563C21.6231 28.8462 21.5084 29.0024 21.3438 29.125C20.5985 29.2149 19.8485 29.2461 19.0938 29.2188C19.0938 27.9688 19.0938 26.7188 19.0938 25.4688Z" fill="#FDC961"/>
<path fill-rule="evenodd" clip-rule="evenodd" d="M8.46876 30.2187C13.4688 30.2187 18.4688 30.2187 23.4688 30.2187C23.8513 30.1931 24.2263 30.2244 24.5938 30.3125C24.7056 30.5364 24.7473 30.776 24.7188 31.0312C18.8855 31.0312 13.0521 31.0312 7.21876 31.0312C7.1902 30.776 7.23189 30.5364 7.34376 30.3125C7.7112 30.2244 8.0862 30.1931 8.46876 30.2187Z" fill="#617587"/>
<path opacity="0.996" fill-rule="evenodd" clip-rule="evenodd" d="M7.21876 31.0312C13.0521 31.0312 18.8855 31.0312 24.7188 31.0312C24.7223 31.2226 24.6389 31.358 24.4688 31.4375C18.8021 31.4792 13.1355 31.4792 7.46876 31.4375C7.29864 31.358 7.21526 31.2226 7.21876 31.0312Z" fill="#5C6F80"/>
</svg>
