<svg width="33" height="32" viewBox="0 0 33 32" fill="none" xmlns="http://www.w3.org/2000/svg">
<g clip-path="url(#clip0_43_1098)">
<path opacity="0.997" fill-rule="evenodd" clip-rule="evenodd" d="M32.4688 15.8438C32.4688 16.1563 32.4688 16.4688 32.4688 16.7813C32.3618 17.0567 32.2056 17.3067 32 17.5313C30.7687 18.773 29.5291 20.0022 28.2812 21.2188C28.2775 21.1848 28.2567 21.164 28.2188 21.1563C25.4571 23.4909 22.6863 25.8138 19.9062 28.125C19.1872 28.6614 18.4372 28.7239 17.6562 28.3125C12.9289 23.5956 8.22062 18.8769 3.53125 14.1563C7.727 9.92926 11.9353 5.7105 16.1562 1.50001C16.8697 0.984031 17.5988 0.963194 18.3438 1.43751C22.9583 6.05209 27.5729 10.6667 32.1875 15.2813C32.2841 15.4745 32.3779 15.662 32.4688 15.8438Z" fill="#E7E7E7"/>
<path fill-rule="evenodd" clip-rule="evenodd" d="M19.7813 9.21875C21.1916 9.14119 22.1187 9.76619 22.5625 11.0937C22.6042 12.8229 22.6042 14.5521 22.5625 16.2812C22.5104 16.3333 22.4583 16.3854 22.4063 16.4375C20.7188 16.4792 19.0313 16.4792 17.3438 16.4375C15.7881 15.9414 15.1736 14.8893 15.5 13.2812C15.9173 12.2551 16.6777 11.7134 17.7813 11.6562C17.9002 10.3917 18.5668 9.57925 19.7813 9.21875Z" fill="#FE6361"/>
<path opacity="0.983" fill-rule="evenodd" clip-rule="evenodd" d="M3.53124 14.1562C8.22061 18.8769 12.9289 23.5956 17.6562 28.3125C18.4372 28.7239 19.1872 28.6614 19.9062 28.125C22.6862 25.8138 25.4571 23.4909 28.2187 21.1562C28.2567 21.164 28.2775 21.1848 28.2812 21.2188C25.273 24.2583 22.2522 27.2895 19.2187 30.3125C18.4983 30.8846 17.7483 30.9262 16.9687 30.4375C15.9978 29.477 15.0395 28.5083 14.0937 27.5312C13.4238 26.7987 12.7155 26.1112 11.9687 25.4688C9.92705 23.3854 7.86455 21.3229 5.78124 19.2812C5.1723 18.5783 4.52647 17.9012 3.84374 17.25C3.80659 17.221 3.76492 17.2106 3.71874 17.2188C3.48975 16.9792 3.271 16.7292 3.06249 16.4688C2.62791 15.5758 2.78416 14.805 3.53124 14.1562Z" fill="#D1D1D1"/>
<path fill-rule="evenodd" clip-rule="evenodd" d="M13.1562 15.3438C13.3832 15.3225 13.5915 15.3746 13.7812 15.5C13.9583 15.6771 14.1354 15.8542 14.3125 16.0313C14.4036 16.2104 14.4244 16.3979 14.375 16.5938C14.252 16.8008 14.127 17.0091 14 17.2188C13.943 17.4658 13.9847 17.6949 14.125 17.9063C14.6771 18.4583 15.2292 19.0104 15.7812 19.5625C16.2302 19.7371 16.6261 19.6538 16.9687 19.3125C17.1562 19.2708 17.3437 19.2708 17.5312 19.3125C17.8125 19.5104 18.0521 19.75 18.25 20.0313C18.3103 20.2989 18.2686 20.5489 18.125 20.7813C17.2566 21.6914 16.3504 22.556 15.4062 23.375C15.2396 23.4167 15.0729 23.4167 14.9062 23.375C14.6688 23.2002 14.4501 23.0023 14.25 22.7813C14.156 22.5601 14.1352 22.3309 14.1875 22.0938C14.2917 21.9479 14.3958 21.8021 14.5 21.6563C14.5417 21.4479 14.5417 21.2396 14.5 21.0313C13.9498 20.4185 13.3769 19.8248 12.7812 19.25C12.5699 19.1097 12.3407 19.068 12.0937 19.125C11.8854 19.25 11.6771 19.375 11.4687 19.5C11.3229 19.5417 11.1771 19.5417 11.0312 19.5C10.7054 19.2784 10.445 18.9971 10.25 18.6563C10.2028 18.4811 10.2236 18.3144 10.3125 18.1563C11.2539 17.2044 12.2017 16.2669 13.1562 15.3438Z" fill="#343F49"/>
<path opacity="0.981" fill-rule="evenodd" clip-rule="evenodd" d="M3.71874 17.2187C3.76492 17.2106 3.80659 17.221 3.84374 17.25C4.52647 17.9012 5.17231 18.5783 5.78124 19.2812C5.13762 19.9561 4.48137 20.6228 3.81249 21.2812C3.33217 21.9482 3.21759 22.6774 3.46874 23.4687C3.27117 23.2828 3.13576 23.0536 3.06249 22.7812C2.84427 22.0266 2.96927 21.3391 3.43749 20.7187C3.84374 20.3125 4.24999 19.9062 4.65624 19.5C4.12276 18.977 3.60193 18.4457 3.09374 17.9062C3.30207 17.6771 3.51041 17.4479 3.71874 17.2187Z" fill="#71797E"/>
<path opacity="0.994" fill-rule="evenodd" clip-rule="evenodd" d="M3.09375 17.9062C3.60194 18.4457 4.12277 18.977 4.65625 19.5C4.25 19.9062 3.84375 20.3125 3.4375 20.7188C2.96928 21.3391 2.84428 22.0266 3.0625 22.7812C3.13577 23.0536 3.27118 23.2828 3.46875 23.4688C3.56099 23.6106 3.65474 23.7564 3.75 23.9062C4.96875 25.125 6.1875 26.3438 7.40625 27.5625C8.23956 28.1042 9.07294 28.1042 9.90625 27.5625C10.398 27.0603 10.898 26.5707 11.4062 26.0938C11.3969 26.1595 11.4073 26.222 11.4375 26.2812C11.9062 26.75 12.375 27.2188 12.8438 27.6875C11.2661 29.5297 9.30775 30.1339 6.96875 29.5C6.35671 29.2463 5.79421 28.9129 5.28125 28.5C4.10417 27.3229 2.92708 26.1458 1.75 24.9688C1.07582 24.1639 0.648734 23.2473 0.46875 22.2188C0.46875 22.0938 0.46875 21.9688 0.46875 21.8438C0.632923 20.9464 0.997506 20.1339 1.5625 19.4062C2.06469 18.8936 2.57511 18.3936 3.09375 17.9062Z" fill="#7C868C"/>
<path opacity="0.978" fill-rule="evenodd" clip-rule="evenodd" d="M0.46875 22.2188C0.648734 23.2472 1.07582 24.1639 1.75 24.9688C2.92708 26.1458 4.10417 27.3229 5.28125 28.5C5.79421 28.9129 6.35671 29.2463 6.96875 29.5C9.30775 30.1339 11.2661 29.5297 12.8438 27.6875C12.375 27.2188 11.9062 26.75 11.4375 26.2812C11.4073 26.222 11.3969 26.1595 11.4062 26.0938C11.5938 25.8854 11.7812 25.6771 11.9688 25.4688C12.7155 26.1112 13.4238 26.7987 14.0938 27.5312C13.3355 28.2582 12.5855 28.9978 11.8438 29.75C10.1743 30.9609 8.38263 31.1692 6.46875 30.375C6.11439 30.1979 5.78106 29.9896 5.46875 29.75C4.14583 28.4271 2.82292 27.1042 1.5 25.7812C0.983496 25.0821 0.639746 24.3112 0.46875 23.4688C0.46875 23.0521 0.46875 22.6354 0.46875 22.2188Z" fill="#71797E"/>
</g>
<defs>
<clipPath id="clip0_43_1098">
<rect width="32" height="32" fill="white" transform="translate(0.5)"/>
</clipPath>
</defs>
</svg>
