<?xml version="1.0"?>
<svg xmlns="http://www.w3.org/2000/svg" xmlns:xlink="http://www.w3.org/1999/xlink" version="1.1" xml:space="preserve">
  <defs>
    <symbol id="email" width="100%" height="100%" viewBox="0 0 24 24" fill="none">
      <path fill-rule="evenodd" clip-rule="evenodd" d="M3.17157 5.17157C2 6.34315 2 8.22876 2 12C2 15.7712 2 17.6569 3.17157 18.8284C4.34315 20 6.22876 20 10 20H14C17.7712 20 19.6569 20 20.8284 18.8284C22 17.6569 22 15.7712 22 12C22 8.22876 22 6.34315 20.8284 5.17157C19.6569 4 17.7712 4 14 4H10C6.22876 4 4.34315 4 3.17157 5.17157ZM18.5762 7.51986C18.8413 7.83807 18.7983 8.31099 18.4801 8.57617L16.2837 10.4066C15.3973 11.1452 14.6789 11.7439 14.0448 12.1517C13.3843 12.5765 12.7411 12.8449 12 12.8449C11.2589 12.8449 10.6157 12.5765 9.95518 12.1517C9.32112 11.7439 8.60271 11.1452 7.71636 10.4066L5.51986 8.57617C5.20165 8.31099 5.15866 7.83807 5.42383 7.51986C5.68901 7.20165 6.16193 7.15866 6.48014 7.42383L8.63903 9.22291C9.57199 10.0004 10.2197 10.5384 10.7666 10.8901C11.2959 11.2306 11.6549 11.3449 12 11.3449C12.3451 11.3449 12.7041 11.2306 13.2334 10.8901C13.7803 10.5384 14.428 10.0004 15.361 9.22291L17.5199 7.42383C17.8381 7.15866 18.311 7.20165 18.5762 7.51986Z" fill="currentColor" />
    </symbol>
    <symbol id="smartphone" width="100%" height="100%" viewBox="0 0 24 24" fill="none">
      <path d="M15.6471 2H8.35292C7.05882 2 6 3.09091 6 4.42424V19.5758C6 20.9091 7.05882 22 8.35292 22H15.6471C16.9412 22 18 20.9091 18 19.5758V4.42424C18 3.09091 16.9412 2 15.6471 2ZM12.0001 19.2121C11.5295 19.2121 11.0588 18.8485 11.0588 18.2424C11.0588 17.7576 11.4118 17.2727 12.0001 17.2727C12.4707 17.2727 12.9412 17.6364 12.9412 18.2424C12.8235 18.8485 12.4707 19.2121 12.0001 19.2121ZM13.5294 6.48483H10.5882C10.1176 6.48483 9.64715 6.1212 9.64715 5.51514C9.64715 5.0303 10 4.54546 10.5882 4.54546H13.5294C14 4.54546 14.4706 4.90908 14.4706 5.51514C14.353 5.99999 14 6.48483 13.5294 6.48483Z" fill="currentColor" />
    </symbol>
    <symbol id="gal-ochka" width="100%" height="100%" viewBox="0 0 12 10" fill="none">
      <path d="M6.23497 8.79946C5.9649 9.16602 5.54433 9.3913 5.0896 9.41369C4.63487 9.43632 4.19445 9.25304 3.88975 8.91464L1.15929 5.88456C0.725328 5.40328 0.763876 4.6614 1.24515 4.22744C1.72689 3.79348 2.46831 3.83226 2.90227 4.31377L4.83407 6.45771C4.8627 6.48956 4.90425 6.50664 4.94695 6.50456C4.98988 6.50249 5.02912 6.48102 5.05475 6.44686L9.02546 1.0614C9.40979 0.539728 10.1443 0.428699 10.6662 0.813259C11.1876 1.19782 11.2984 1.93232 10.9139 2.45376L6.23497 8.79946Z" fill="currentColor" />
    </symbol>
    <symbol id="arrow-left" width="100%" height="100%" viewBox="0 0 25 24" fill="none">
      <path d="M6.5 8L2.5 12M2.5 12L6.5 16M2.5 12H22.5" stroke="currentColor" stroke-width="1.5" stroke-linecap="round" stroke-linejoin="round" />
    </symbol>
    <symbol id="arrow-right" width="100%" height="100%" viewBox="0 0 24 24" fill="none">
      <path d="M18 8L22 12M22 12L18 16M22 12H2" stroke="currentColor" stroke-width="1.5" stroke-linecap="round" stroke-linejoin="round" />
    </symbol>
    <symbol id="to-right" width="100%" height="100%" viewBox="0 0 8 14" fill="none">
      <path d="M5.63663 7.00019L1.15148 2.51504C0.7935 2.15706 0.7935 1.57666 1.15148 1.21868C1.50946 0.8607 2.08986 0.8607 2.44784 1.21868L7.58118 6.35201C7.93916 6.70999 7.93916 7.29039 7.58118 7.64838L2.44784 12.7817C2.08986 13.1397 1.50946 13.1397 1.15148 12.7817C0.7935 12.4237 0.7935 11.8433 1.15148 11.4853L5.63663 7.00019Z" fill="currentColor" />
    </symbol>
    <symbol id="to-left" width="100%" height="100%" viewBox="0 0 8 14" fill="none">
      <path d="M2.36337 7.00019L6.84852 2.51504C7.2065 2.15706 7.2065 1.57666 6.84852 1.21868C6.49054 0.8607 5.91014 0.8607 5.55216 1.21868L0.418823 6.35201C0.0608425 6.70999 0.0608425 7.29039 0.418823 7.64838L5.55216 12.7817C5.91014 13.1397 6.49054 13.1397 6.84852 12.7817C7.2065 12.4237 7.2065 11.8433 6.84852 11.4853L2.36337 7.00019Z" fill="currentColor" />
    </symbol>
    <symbol id="play" width="100%" height="100%" viewBox="0 0 24 24" fill="none">
      <path d="M19.5761 9.35258C21.4746 10.5065 21.4746 13.4935 19.5761 14.6474L8.11276 21.6145C6.26758 22.736 4 21.2763 4 18.9671L4 5.0329C4 2.72368 6.26758 1.26402 8.11276 2.38548L19.5761 9.35258Z" fill="currentColor" />
    </symbol>
    <symbol id="cross" width="100%" height="100%" viewBox="0 0 16 16" fill="none">
      <path d="M1 15L15 1M1 1L15 15" fill="none" stroke="currentColor" stroke-width="2" stroke-linecap="round" stroke-linejoin="round" />
    </symbol>
    <symbol id="circle-check" width="100%" height="100%" viewBox="0 0 24 24" fill="none">
      <path fill-rule="evenodd" clip-rule="evenodd" d="M22 12C22 17.5228 17.5228 22 12 22C6.47715 22 2 17.5228 2 12C2 6.47715 6.47715 2 12 2C17.5228 2 22 6.47715 22 12ZM16.0303 8.96967C16.3232 9.26256 16.3232 9.73744 16.0303 10.0303L11.0303 15.0303C10.7374 15.3232 10.2626 15.3232 9.96967 15.0303L7.96967 13.0303C7.67678 12.7374 7.67678 12.2626 7.96967 11.9697C8.26256 11.6768 8.73744 11.6768 9.03033 11.9697L10.5 13.4393L12.7348 11.2045L14.9697 8.96967C15.2626 8.67678 15.7374 8.67678 16.0303 8.96967Z" fill="currentColor" />
    </symbol>
    <symbol id="calendar" width="100%" height="100%" viewBox="0 0 20 20" fill="none">

      <path d="M6.45834 2.08325C6.45834 1.73807 6.17852 1.45825 5.83334 1.45825C5.48816 1.45825 5.20834 1.73807 5.20834 2.08325V3.3993C4.0089 3.49535 3.22148 3.73106 2.64298 4.30956C2.06448 4.88806 1.82877 5.67548 1.73272 6.87492H18.2673C18.1712 5.67548 17.9355 4.88806 17.357 4.30956C16.7785 3.73106 15.9911 3.49535 14.7917 3.3993V2.08325C14.7917 1.73807 14.5118 1.45825 14.1667 1.45825C13.8215 1.45825 13.5417 1.73807 13.5417 2.08325V3.344C12.9873 3.33325 12.3659 3.33325 11.6667 3.33325H8.33334C7.63414 3.33325 7.01273 3.33325 6.45834 3.344V2.08325Z" fill="#45474B" />
      <path fill-rule="evenodd" clip-rule="evenodd" d="M1.66667 9.99992C1.66667 9.30072 1.66667 8.67931 1.67742 8.12492H18.3226C18.3333 8.67931 18.3333 9.30072 18.3333 9.99992V11.6666C18.3333 14.8093 18.3333 16.3806 17.357 17.3569C16.3807 18.3333 14.8094 18.3333 11.6667 18.3333H8.33334C5.19064 18.3333 3.61929 18.3333 2.64298 17.3569C1.66667 16.3806 1.66667 14.8093 1.66667 11.6666V9.99992ZM14.1667 11.6666C14.6269 11.6666 15 11.2935 15 10.8333C15 10.373 14.6269 9.99992 14.1667 9.99992C13.7064 9.99992 13.3333 10.373 13.3333 10.8333C13.3333 11.2935 13.7064 11.6666 14.1667 11.6666ZM14.1667 14.9999C14.6269 14.9999 15 14.6268 15 14.1666C15 13.7063 14.6269 13.3333 14.1667 13.3333C13.7064 13.3333 13.3333 13.7063 13.3333 14.1666C13.3333 14.6268 13.7064 14.9999 14.1667 14.9999ZM10.8333 10.8333C10.8333 11.2935 10.4602 11.6666 10 11.6666C9.53977 11.6666 9.16667 11.2935 9.16667 10.8333C9.16667 10.373 9.53977 9.99992 10 9.99992C10.4602 9.99992 10.8333 10.373 10.8333 10.8333ZM10.8333 14.1666C10.8333 14.6268 10.4602 14.9999 10 14.9999C9.53977 14.9999 9.16667 14.6268 9.16667 14.1666C9.16667 13.7063 9.53977 13.3333 10 13.3333C10.4602 13.3333 10.8333 13.7063 10.8333 14.1666ZM5.83334 11.6666C6.29358 11.6666 6.66667 11.2935 6.66667 10.8333C6.66667 10.373 6.29358 9.99992 5.83334 9.99992C5.3731 9.99992 5.00001 10.373 5.00001 10.8333C5.00001 11.2935 5.3731 11.6666 5.83334 11.6666ZM5.83334 14.9999C6.29358 14.9999 6.66667 14.6268 6.66667 14.1666C6.66667 13.7063 6.29358 13.3333 5.83334 13.3333C5.3731 13.3333 5.00001 13.7063 5.00001 14.1666C5.00001 14.6268 5.3731 14.9999 5.83334 14.9999Z" fill="currentColor" />


    </symbol>

    <!--  -->
    <!--  -->
    <!--  -->
  </defs>
</svg>