<svg width="158" height="48" viewBox="0 0 158 48" fill="none" xmlns="http://www.w3.org/2000/svg">
<path d="M22.7812 0.496838C20.4375 1.79059 4.03125 11.2031 4.03125 11.25C4.03125 11.2781 8.52188 13.8656 14.0156 16.9968L24 22.6968L33.9844 16.9968C39.4781 13.8656 43.9688 11.2781 43.9688 11.25C43.9688 11.2031 27.5625 1.79059 25.2188 0.496838C24.6188 0.159338 24.225 -3.8147e-05 24 -3.8147e-05C23.775 -3.8147e-05 23.3813 0.159338 22.7812 0.496838Z" fill="#0F67FD"/>
<path d="M2.53125 25.1062V36.525L12.5625 42.2531L22.5938 47.9906V36.525V25.0687L12.6281 19.3781C7.15313 16.2469 2.64375 13.6875 2.59688 13.6875C2.55938 13.6875 2.53125 18.825 2.53125 25.1062Z" fill="#F0F0F3"/>
<path d="M35.3719 19.3875L25.4062 25.0781V36.5344V47.9906L35.4375 42.2531L45.4688 36.525V25.1062C45.4688 18.825 45.4406 13.6875 45.4031 13.6875C45.3563 13.6875 40.8469 16.2562 35.3719 19.3875Z" fill="#FB3A4C"/>
<path d="M60.624 11.096C60.2613 11.416 60.08 11.8907 60.08 12.52C60.08 13.1493 60.2613 13.6293 60.624 13.96C60.9867 14.2907 61.7173 14.456 62.816 14.456H71.2V17H62.816C60.7787 17 59.2907 16.5893 58.352 15.768C57.4133 14.9467 56.944 13.864 56.944 12.52C56.944 11.176 57.4133 10.0933 58.352 9.272C59.2907 8.45067 60.7787 8.04 62.816 8.04H71.2V10.6H62.816C61.728 10.6 60.9973 10.7653 60.624 11.096ZM72.7471 10.6V8.04H88.2671V10.6H81.9951V17H79.0351V10.6H72.7471ZM96.3165 17H92.0925L95.6605 13.992L88.7005 8.04H92.9725L97.6605 12.184L101.901 8.04H106.173L96.3165 17ZM108.395 17V18.92H105.435V14.456H107.211C107.52 14.456 107.76 14.3867 107.931 14.248C108.101 14.1093 108.203 13.9387 108.235 13.736L109.067 8.04H120.235V14.456H121.419V18.92H118.459V17H108.395ZM111.275 12.984C111.211 13.4533 111.045 13.944 110.779 14.456H117.275V10.6H111.611L111.275 12.984ZM135.69 11.352L126.682 17H123.882V8.04H126.842V13.704L135.85 8.04H138.65V17H135.69V11.352ZM156.345 8.04V17H153.369V14.264H149.001L145.049 17H140.377L144.921 14.184C143.918 14.0133 143.177 13.6613 142.697 13.128C142.228 12.5947 141.993 11.928 141.993 11.128C141.993 10.2107 142.324 9.46933 142.985 8.904C143.657 8.328 144.697 8.04 146.105 8.04H156.345ZM153.369 10.6H146.233C145.966 10.6 145.748 10.616 145.577 10.648C145.417 10.68 145.305 10.728 145.241 10.792C145.177 10.856 145.134 10.92 145.113 10.984C145.092 11.0373 145.081 11.1067 145.081 11.192C145.081 11.2987 145.086 11.384 145.097 11.448C145.118 11.5013 145.161 11.56 145.225 11.624C145.3 11.688 145.417 11.736 145.577 11.768C145.748 11.7893 145.966 11.8 146.233 11.8H153.369V10.6Z" fill="white"/>
<path d="M74.48 33.456L87.368 42H79.064L70.064 35.88H63.728V42H58.712V25.2H63.728V31.32H70.088L77.456 25.2H85.088L74.48 33.456ZM99.3853 42H92.2812L98.5213 36.456L86.1132 25.2H93.3613L101.881 33.264L109.777 25.2H116.881L99.3853 42ZM119.368 42V25.2H143.248V29.76H124.384V31.584H138.064C140.368 31.584 142.064 32.056 143.152 33C144.256 33.928 144.808 35.192 144.808 36.792C144.808 38.36 144.256 39.624 143.152 40.584C142.064 41.528 140.368 42 138.064 42H119.368ZM137.944 35.64H124.384V37.44H137.944C138.312 37.44 138.608 37.416 138.832 37.368C139.072 37.32 139.232 37.248 139.312 37.152C139.392 37.04 139.44 36.952 139.456 36.888C139.472 36.808 139.48 36.696 139.48 36.552C139.48 36.392 139.472 36.28 139.456 36.216C139.44 36.136 139.392 36.048 139.312 35.952C139.232 35.84 139.08 35.76 138.856 35.712C138.632 35.664 138.328 35.64 137.944 35.64Z" fill="white"/>
</svg>
