<svg width="30" height="30" viewBox="0 0 30 30" fill="none" xmlns="http://www.w3.org/2000/svg">
<rect width="30" height="30" rx="15" fill="#FFE9DF"/>
<g clip-path="url(#clip0_1769_243)">
<path opacity="0.995" fill-rule="evenodd" clip-rule="evenodd" d="M17.7953 7.95312C17.7953 8.89062 17.7953 9.82812 17.7953 10.7656C17.5215 10.7946 17.3653 10.9456 17.3265 11.2187C17.3513 11.5091 17.5075 11.6706 17.7953 11.7031C17.7953 12.7135 17.7953 13.724 17.7953 14.7344C17.258 15.3081 16.6955 15.855 16.1078 16.375C15.8165 16.4609 15.603 16.3723 15.4671 16.1094C15.4515 15.5678 15.4463 15.0262 15.4515 14.4844C14.2012 14.2705 13.321 13.583 12.8109 12.4219C12.3211 10.8918 12.6909 9.61579 13.9203 8.59375C14.3769 8.25742 14.8873 8.04909 15.4515 7.96875C16.2327 7.95312 17.014 7.94792 17.7953 7.95312Z" fill="#FDD743"/>
<path fill-rule="evenodd" clip-rule="evenodd" d="M17.7969 7.95312C18.5782 7.94792 19.3594 7.95312 20.1406 7.96875C21.3901 8.19473 22.2703 8.88744 22.7812 10.0469C22.8694 10.2957 22.9371 10.5457 22.9844 10.7969C22.9844 11.0885 22.9844 11.3802 22.9844 11.6719C22.7611 12.8905 22.0841 13.7602 20.9531 14.2812C20.7485 14.3564 20.5402 14.4189 20.3281 14.4687C19.5583 14.5082 18.7874 14.5291 18.0156 14.5312C17.9468 14.6054 17.8738 14.6731 17.7969 14.7344C17.7969 13.724 17.7969 12.7135 17.7969 11.7031C18.0883 11.6826 18.2445 11.5263 18.2656 11.2344C18.2445 10.9424 18.0883 10.7862 17.7969 10.7656C17.7969 9.82812 17.7969 8.89062 17.7969 7.95312Z" fill="#F9BE2C"/>
<path opacity="0.994" fill-rule="evenodd" clip-rule="evenodd" d="M12.2656 16.7648C11.5781 17.4315 10.901 18.1086 10.2344 18.7961C8.38562 16.9944 7.30229 14.8069 6.98438 12.2336C6.98438 11.8898 6.98438 11.5461 6.98438 11.2023C7.12647 10.6903 7.44939 10.3413 7.95312 10.1555C8.78492 10.1045 9.61826 10.0941 10.4531 10.1242C10.5833 10.1711 10.6719 10.2596 10.7188 10.3898C11.0312 11.3273 11.3438 12.2648 11.6562 13.2023C11.6837 13.3519 11.6733 13.4977 11.625 13.6398C11.3475 14.0334 11.0819 14.4344 10.8281 14.843C11.2054 15.5589 11.6845 16.1995 12.2656 16.7648Z" fill="#FE6319"/>
<path fill-rule="evenodd" clip-rule="evenodd" d="M17.7969 10.7656C18.0883 10.7862 18.2445 10.9424 18.2656 11.2344C18.2445 11.5263 18.0883 11.6826 17.7969 11.7031C17.7969 11.3906 17.7969 11.0781 17.7969 10.7656Z" fill="#4D2846"/>
<path fill-rule="evenodd" clip-rule="evenodd" d="M19.5486 10.7661C19.9594 10.755 20.1521 10.9529 20.1267 11.3598C19.9785 11.6814 19.7441 11.77 19.4236 11.6254C19.1032 11.2876 19.1448 11.0011 19.5486 10.7661Z" fill="#4D2845"/>
<path fill-rule="evenodd" clip-rule="evenodd" d="M15.7954 10.7665C16.1917 10.7513 16.3844 10.9388 16.3735 11.329C16.242 11.6714 16.0076 11.7704 15.6704 11.6259C15.349 11.287 15.3907 11.0005 15.7954 10.7665Z" fill="#623E5B"/>
<path fill-rule="evenodd" clip-rule="evenodd" d="M17.7969 10.7656C17.7969 11.0781 17.7969 11.3906 17.7969 11.7031C17.5091 11.6706 17.3529 11.5091 17.3281 11.2188C17.3669 10.9456 17.5232 10.7946 17.7969 10.7656Z" fill="#623E5B"/>
<path fill-rule="evenodd" clip-rule="evenodd" d="M12.2656 16.7656C12.8403 17.3246 13.4809 17.7934 14.1875 18.1719C14.5961 17.9181 14.9971 17.6525 15.3906 17.375C15.5327 17.3267 15.6785 17.3163 15.8281 17.3438C16.8119 17.6648 17.7911 17.9981 18.7656 18.3438C18.8318 18.3978 18.8787 18.4656 18.9062 18.5469C18.9271 19.3385 18.9271 20.1302 18.9062 20.9219C18.6649 21.7044 18.1336 22.069 17.3125 22.0156C15.4592 21.9499 13.7561 21.4135 12.2031 20.4062C11.4865 19.945 10.8303 19.4085 10.2344 18.7969C10.901 18.1094 11.5781 17.4323 12.2656 16.7656Z" fill="#F03800"/>
</g>
<defs>
<clipPath id="clip0_1769_243">
<rect width="16" height="16" fill="white" transform="translate(7 7)"/>
</clipPath>
</defs>
</svg>
