<svg width="30" height="30" viewBox="0 0 30 30" fill="none" xmlns="http://www.w3.org/2000/svg">
<rect width="30" height="30" rx="15" fill="#26D044"/>
<path fill-rule="evenodd" clip-rule="evenodd" d="M20.6096 9.38401C19.1212 7.90099 17.1418 7.08391 15.033 7.08301C10.6876 7.08301 7.15106 10.6025 7.14932 14.9283C7.14879 16.3111 7.51173 17.6608 8.20166 18.8507L7.08325 22.9163L11.2624 21.8253C12.4139 22.4504 13.7104 22.7799 15.0298 22.7803H15.033C19.3779 22.7803 22.9148 19.2604 22.9166 14.9345C22.9173 12.8382 22.098 10.867 20.6096 9.38401ZM15.033 21.4553H15.0304C13.8546 21.4548 12.7014 21.1404 11.6954 20.5463L11.4561 20.405L8.97609 21.0524L9.63804 18.646L9.48224 18.3992C8.82636 17.361 8.47988 16.161 8.48041 14.9287C8.48185 11.3333 11.4213 8.40811 15.0357 8.40811C16.7858 8.40872 18.431 9.08788 19.6682 10.3206C20.9053 11.5532 21.5861 13.1916 21.5854 14.9341C21.584 18.5298 18.6446 21.4553 15.033 21.4553ZM18.6272 16.5712C18.4302 16.4731 17.4618 15.9988 17.2812 15.9334C17.1007 15.8681 16.9693 15.8353 16.838 16.0316C16.7067 16.2279 16.3292 16.6694 16.2142 16.8003C16.0993 16.931 15.9844 16.9475 15.7875 16.8493C15.5904 16.7512 14.9558 16.5441 14.2034 15.8762C13.6178 15.3564 13.2225 14.7145 13.1076 14.5181C12.9927 14.3219 13.0953 14.2158 13.194 14.1181C13.2826 14.0302 13.3909 13.889 13.4895 13.7746C13.588 13.6602 13.6208 13.5783 13.6865 13.4475C13.7521 13.3167 13.7193 13.2022 13.67 13.1041C13.6208 13.0059 13.2268 12.0409 13.0627 11.6484C12.9028 11.2662 12.7404 11.3179 12.6195 11.3119C12.5047 11.3062 12.3733 11.3049 12.2419 11.3049C12.1106 11.3049 11.8972 11.354 11.7166 11.5503C11.5361 11.7465 11.0272 12.2208 11.0272 13.1858C11.0272 14.1507 11.733 15.0829 11.8315 15.2138C11.93 15.3446 13.2206 17.3247 15.1966 18.1739C15.6665 18.3759 16.0334 18.4965 16.3195 18.5869C16.7915 18.7361 17.2208 18.715 17.5602 18.6646C17.9387 18.6083 18.7256 18.1903 18.8898 17.7324C19.0539 17.2744 19.0539 16.8819 19.0047 16.8001C18.9555 16.7184 18.8242 16.6694 18.6272 16.5712Z" fill="white"/>
</svg>
