<svg width="30" height="30" viewBox="0 0 30 30" fill="none" xmlns="http://www.w3.org/2000/svg">
<rect width="30" height="30" rx="15" fill="#33AADE"/>
<path fill-rule="evenodd" clip-rule="evenodd" d="M8.57209 14.4198C12.2462 12.7532 14.692 11.6458 15.9202 11.1085C19.4158 9.58442 20.1507 9.32127 20.623 9.3103C20.728 9.3103 20.959 9.33223 21.1164 9.46381C21.2424 9.57345 21.2739 9.71599 21.2949 9.82564C21.3159 9.93528 21.3369 10.1655 21.3159 10.341C21.1269 12.4242 20.3081 17.4789 19.8882 19.8034C19.7098 20.7902 19.3634 21.1191 19.0274 21.152C18.2926 21.2178 17.7363 20.6477 17.0329 20.1652C15.9202 19.4087 15.3009 18.9372 14.2197 18.1916C12.9705 17.3364 13.7788 16.8649 14.4926 16.0974C14.6815 15.9 17.9042 12.8299 17.9672 12.5558C17.9777 12.5229 17.9777 12.3913 17.9042 12.3256C17.8307 12.2598 17.7258 12.2817 17.6418 12.3036C17.5263 12.3256 15.7628 13.5536 12.3301 15.9768C11.8263 16.3386 11.3749 16.514 10.9655 16.5031C10.5141 16.4921 9.65331 16.2399 9.00248 16.0206C8.21518 15.7575 7.58534 15.6149 7.63782 15.1544C7.66932 14.9132 7.98424 14.672 8.57209 14.4198Z" fill="white"/>
</svg>
