<svg width="42" height="28" viewBox="0 0 42 28" fill="none" xmlns="http://www.w3.org/2000/svg">
  <path d="M34.4229 1.33813C35.0219 1.33813 35.5076 1.8206 35.5076 2.41575L35.5076 8.88142C35.5076 9.47657 35.0219 9.95903 34.4229 9.95903L7.30602 9.95903C6.70696 9.95903 6.22134 9.47657 6.22134 8.88142L6.22134 2.41575C6.22134 1.8206 6.70697 1.33813 7.30602 1.33813L34.4229 1.33813Z" fill="#0355B6" />
  <path fill-rule="evenodd" clip-rule="evenodd" d="M36.5922 2.41572L36.5922 8.8814C36.5922 10.0717 35.621 11.0366 34.4229 11.0366L7.30599 11.0366C6.10789 11.0366 5.13664 10.0717 5.13664 8.88139L5.13664 2.41572C5.13664 1.22542 6.10789 0.260497 7.30599 0.260497L34.4229 0.260498C35.621 0.260498 36.5922 1.22543 36.5922 2.41572ZM35.5075 2.41572C35.5075 1.82057 35.0219 1.33811 34.4229 1.33811L7.30599 1.33811C6.70695 1.33811 6.22132 1.82057 6.22132 2.41572L6.22132 8.88139C6.22132 9.47654 6.70694 9.95901 7.30599 9.95901L34.4229 9.95901C35.0219 9.95901 35.5075 9.47654 35.5075 8.8814L35.5075 2.41572Z" fill="#023E84" />
  <path d="M7.90284 1.76199C7.47925 1.34115 6.79248 1.34115 6.36888 1.76199L1.767 6.33391C1.3434 6.75474 1.3434 7.43705 1.767 7.85788L20.2676 26.238C20.6912 26.6588 21.378 26.6588 21.8016 26.238L26.4034 21.6661C26.827 21.2453 26.827 20.563 26.4034 20.1421L7.90284 1.76199Z" fill="#F0F0F3" />
  <path fill-rule="evenodd" clip-rule="evenodd" d="M5.6019 1.00005L1.00002 5.57197C0.152832 6.41364 0.152832 7.77825 1.00002 8.61992L19.5006 27C20.3478 27.8417 21.7214 27.8417 22.5685 27L27.1704 22.4281C28.0176 21.5865 28.0176 20.2218 27.1704 19.3802L8.66983 1.00005C7.82264 0.158379 6.44909 0.158381 5.6019 1.00005ZM6.36888 1.76203C6.79248 1.3412 7.47925 1.3412 7.90284 1.76203L26.4034 20.1422C26.827 20.563 26.827 21.2453 26.4034 21.6661L21.8016 26.2381C21.378 26.6589 20.6912 26.6589 20.2676 26.2381L1.767 7.85793C1.34341 7.4371 1.34341 6.75479 1.767 6.33396L6.36888 1.76203Z" fill="#023E84" />
  <path d="M33.8261 1.78301C34.2479 1.3523 34.9428 1.34756 35.3705 1.77249L39.9722 6.34426C40.3917 6.76102 40.3964 7.43528 39.9827 7.85771L22.0034 26.2169C21.5816 26.6476 20.8867 26.6524 20.459 26.2275L15.8572 21.6557C15.4377 21.2389 15.4331 20.5647 15.8468 20.1422L33.8261 1.78301Z" fill="#F1333B" />
  <path fill-rule="evenodd" clip-rule="evenodd" d="M36.1375 1.01055L40.7392 5.58233C41.5782 6.41584 41.5875 7.76435 40.7601 8.60922L22.7808 26.9684C21.9372 27.8299 20.5474 27.8393 19.692 26.9895L15.0902 22.4177C14.2513 21.5842 14.242 20.2357 15.0693 19.3908L33.0487 1.0316C33.8923 0.170177 35.2821 0.160704 36.1375 1.01055ZM35.3705 1.77254C34.9428 1.34761 34.2479 1.35235 33.8261 1.78306L15.8468 20.1423C15.4331 20.5647 15.4377 21.239 15.8572 21.6557L20.459 26.2275C20.8867 26.6524 21.5816 26.6477 22.0034 26.217L39.9827 7.85776C40.3964 7.43533 40.3917 6.76107 39.9722 6.34431L35.3705 1.77254Z" fill="#9B0F15" />
  <path fill-rule="evenodd" clip-rule="evenodd" d="M34.7027 2.23493C34.9155 2.44439 34.9171 2.78554 34.7062 2.99691L23.6222 14.1098C23.4114 14.3212 23.068 14.3227 22.8552 14.1133C22.6425 13.9038 22.6409 13.5627 22.8517 13.3513L33.9358 2.23841C34.1466 2.02704 34.49 2.02548 34.7027 2.23493Z" fill="#FE666D" />
  <path d="M36.9089 5.32497C36.6917 5.54071 36.3439 5.54498 36.1321 5.3345C35.9202 5.12402 35.9245 4.7785 36.1417 4.56276C36.3588 4.34701 36.7066 4.34275 36.9185 4.55323C37.1303 4.76371 37.126 5.10923 36.9089 5.32497Z" fill="#DB1B24" />
  <path d="M35.2593 6.65889C34.9892 6.92725 34.5566 6.93256 34.293 6.67074C34.0295 6.40892 34.0348 5.97913 34.305 5.71077C34.5751 5.4424 35.0077 5.4371 35.2712 5.69892C35.5348 5.96073 35.5294 6.39053 35.2593 6.65889Z" fill="#DB1B24" />
  <path d="M37.0168 7.08054C36.8817 7.21472 36.6654 7.21738 36.5337 7.08647C36.4019 6.95556 36.4046 6.74066 36.5396 6.60648C36.6747 6.4723 36.891 6.46965 37.0228 6.60056C37.1545 6.73146 37.1519 6.94636 37.0168 7.08054Z" fill="#DB1B24" />
  <path d="M33.1099 11.6323C32.9749 11.7665 32.7586 11.7691 32.6268 11.6382C32.495 11.5073 32.4977 11.2924 32.6328 11.1582C32.7678 11.0241 32.9841 11.0214 33.1159 11.1523C33.2477 11.2832 33.245 11.4981 33.1099 11.6323Z" fill="#DB1B24" />
  <path d="M35.0711 8.53928C34.9361 8.67346 34.7198 8.67612 34.588 8.54521C34.4562 8.4143 34.4589 8.1994 34.594 8.06522C34.729 7.93104 34.9453 7.92839 35.0771 8.0593C35.2089 8.1902 35.2062 8.4051 35.0711 8.53928Z" fill="#DB1B24" />
  <path d="M33.104 13.4878C32.969 13.622 32.7527 13.6246 32.6209 13.4937C32.4891 13.3628 32.4918 13.1479 32.6268 13.0137C32.7619 12.8795 32.9782 12.8769 33.11 13.0078C33.2417 13.1387 33.2391 13.3536 33.104 13.4878Z" fill="#DB1B24" />
  <path d="M33.599 8.12986C33.464 8.26404 33.2476 8.26669 33.1159 8.13579C32.9841 8.00488 32.9868 7.78998 33.1218 7.6558C33.2569 7.52162 33.4732 7.51896 33.605 7.64987C33.7367 7.78078 33.7341 7.99568 33.599 8.12986Z" fill="#DB1B24" />
  <path d="M34.6994 11.9687C34.5644 12.1029 34.348 12.1056 34.2163 11.9747C34.0845 11.8437 34.0872 11.6288 34.2222 11.4947C34.3573 11.3605 34.5736 11.3578 34.7054 11.4887C34.8371 11.6196 34.8345 11.8345 34.6994 11.9687Z" fill="#DB1B24" />
  <path d="M38.6542 6.22996C38.5191 6.36414 38.3028 6.36679 38.1711 6.23588C38.0393 6.10497 38.042 5.89008 38.177 5.7559C38.3121 5.62171 38.5284 5.61906 38.6602 5.74997C38.7919 5.88088 38.7893 6.09578 38.6542 6.22996Z" fill="#DB1B24" />
  <path d="M36.8655 9.04533C36.6457 9.2637 36.2936 9.26802 36.0792 9.05497C35.8647 8.84193 35.8691 8.49219 36.0889 8.27382C36.3087 8.05544 36.6607 8.05113 36.8752 8.26417C37.0896 8.47722 37.0853 8.82696 36.8655 9.04533Z" fill="#DB1B24" />
  <path d="M38.9608 7.73503C38.741 7.9534 38.389 7.95772 38.1745 7.74467C37.9601 7.53162 37.9644 7.18189 38.1842 6.96352C38.404 6.74514 38.7561 6.74082 38.9705 6.95387C39.1849 7.16692 39.1806 7.51665 38.9608 7.73503Z" fill="#DB1B24" />
  <path d="M34.7161 10.4352C34.4963 10.6536 34.1443 10.6579 33.9298 10.4449C33.7154 10.2318 33.7197 9.88208 33.9395 9.66371C34.1593 9.44534 34.5114 9.44102 34.7258 9.65407C34.9403 9.86711 34.9359 10.2168 34.7161 10.4352Z" fill="#DB1B24" />
  <path d="M36.24 10.6723C36.1049 10.8065 35.8886 10.8092 35.7569 10.6783C35.6251 10.5474 35.6278 10.3325 35.7628 10.1983C35.8979 10.0641 36.1142 10.0614 36.246 10.1924C36.3777 10.3233 36.3751 10.5382 36.24 10.6723Z" fill="#DB1B24" />
</svg>