<svg width="92" height="26" viewBox="0 0 92 26" fill="none" xmlns="http://www.w3.org/2000/svg">

  <path d="M32.8831 9.74744V6.73629C32.8831 2.73324 30.5805 0.359741 26.6837 0.359741C22.8224 0.359741 20.5906 2.66239 20.5906 6.73629V7.26767C20.5906 10.8456 21.6887 12.6877 24.4519 13.7859L26.0106 14.3527C28.703 15.4509 29.4115 16.3365 29.4115 18.2495V19.7374C29.4115 21.6503 28.4196 22.7839 26.7191 22.7839C25.0542 22.7839 24.0622 21.6503 24.0622 19.7374V16.4782H20.5197V19.4894C20.5197 23.5279 22.7515 25.8659 26.6837 25.8659C30.6159 25.8659 32.954 23.4925 32.954 19.4894V18.8163C32.954 15.1675 31.8912 13.4317 29.0218 12.3335L27.6048 11.8021C24.8062 10.6685 24.1331 9.78287 24.1331 7.8699V6.48832C24.1331 4.57535 25.0896 3.44174 26.7191 3.44174C28.3487 3.44174 29.3406 4.57535 29.3406 6.48832V9.74744H32.8831ZM45.6163 0.713994H33.9259V3.79599H37.9998V25.5117H41.5424V3.79599H45.6163V0.713994ZM47.0558 0.713994V25.5117H52.9718C56.5852 25.5117 59.2775 23.7404 59.2775 19.3831V6.84257C59.2775 2.52068 56.5852 0.713994 52.9718 0.713994H47.0558ZM50.5983 3.79599H52.9364C54.4242 3.79599 55.6995 4.5045 55.6995 6.80714V19.4185C55.6995 21.7212 54.4242 22.4297 52.9364 22.4297H50.5983V3.79599ZM64.6776 0.678569H61.1351V25.5117H64.6776V14.6716H65.2444L69.7434 25.5117H73.5339L68.1493 13.1128L72.9671 0.678569H69.1766L65.2444 11.5541H64.6776V0.678569ZM74.7655 0.713994V25.5117H78.308V0.713994H74.7655ZM91.2471 0.713994H79.5567V3.79599H83.6307V25.5117H87.1732V3.79599H91.2471V0.713994Z" fill="white" />
  <path d="M6.8983 24.9771L6.70007 25.5115H7.2701H9.31821H9.59407L9.69001 25.2528L18.6132 1.19541L18.8113 0.66095H18.2414H16.1933H15.9174L15.8215 0.919597L6.8983 24.9771Z" fill="white" stroke="white" stroke-width="0.793103" />
  <path d="M0.817864 24.9771L0.619629 25.5115H1.18966H3.23777H3.51363L3.60957 25.2528L12.5327 1.19541L12.731 0.66095H12.1609H10.1128H9.83696L9.74102 0.919597L0.817864 24.9771Z" fill="white" stroke="white" stroke-width="0.793103" />

</svg>