<svg width="32" height="32" viewBox="0 0 32 32" fill="none" xmlns="http://www.w3.org/2000/svg">
<rect x="2" y="2" width="28" height="28" rx="6" fill="url(#paint0_radial_43_1217)"/>
<rect x="2" y="2" width="28" height="28" rx="6" fill="url(#paint1_radial_43_1217)"/>
<rect x="2" y="2" width="28" height="28" rx="6" fill="url(#paint2_linear_43_1217)"/>
<path fill-rule="evenodd" clip-rule="evenodd" d="M16.5714 25.1429C21.9365 25.1429 26.2857 20.7937 26.2857 15.4286C26.2857 10.0636 21.9365 5.71436 16.5714 5.71436C11.2064 5.71436 6.85712 10.0636 6.85712 15.4286C6.85712 17.1709 7.31577 18.806 8.11892 20.2198L6.85712 25.1429L11.9327 23.966C13.3111 24.7165 14.8915 25.1429 16.5714 25.1429ZM16.5714 23.6484C21.1111 23.6484 24.7912 19.9683 24.7912 15.4286C24.7912 10.889 21.1111 7.20886 16.5714 7.20886C12.0317 7.20886 8.35162 10.889 8.35162 15.4286C8.35162 17.1814 8.90024 18.8061 9.83513 20.1402L9.09888 22.9012L11.9085 22.1988C13.2334 23.113 14.8399 23.6484 16.5714 23.6484Z" fill="white"/>
<path d="M14.0421 10.753C13.8082 10.2414 13.4493 10.2867 13.0868 10.2867C12.4389 10.2867 11.4286 11.1318 11.4286 12.7046C11.4286 13.9937 11.9502 15.4047 13.7079 17.5155C15.4042 19.5526 17.633 20.6063 19.4833 20.5705C21.3336 20.5346 21.7143 18.8007 21.7143 18.2151C21.7143 17.9556 21.5664 17.8261 21.4645 17.7909C20.834 17.4614 19.671 16.8474 19.4064 16.732C19.1418 16.6167 19.0036 16.7727 18.9178 16.8576C18.6778 17.1066 18.2021 17.8405 18.0393 18.0056C17.8764 18.1706 17.6336 18.0871 17.5325 18.0247C17.1607 17.8622 16.1525 17.3739 15.3489 16.5256C14.3551 15.4764 14.2968 15.1155 14.1095 14.7942C13.9597 14.5372 14.0696 14.3795 14.1245 14.3105C14.3386 14.0415 14.6343 13.6261 14.7669 13.4197C14.8995 13.2132 14.7942 12.8998 14.7311 12.7046C14.4594 11.8651 14.2293 11.1624 14.0421 10.753Z" fill="white"/>
<defs>
<radialGradient id="paint0_radial_43_1217" cx="0" cy="0" r="1" gradientUnits="userSpaceOnUse" gradientTransform="translate(12 23) rotate(-55.3758) scale(25.5196)">
<stop stop-color="#B13589"/>
<stop offset="0.79309" stop-color="#C62F94"/>
<stop offset="1" stop-color="#8A3AC8"/>
</radialGradient>
<radialGradient id="paint1_radial_43_1217" cx="0" cy="0" r="1" gradientUnits="userSpaceOnUse" gradientTransform="translate(11 31) rotate(-65.1363) scale(22.5942)">
<stop stop-color="#E0E8B7"/>
<stop offset="0.444662" stop-color="#FB8A2E"/>
<stop offset="0.71474" stop-color="#E2425C"/>
<stop offset="1" stop-color="#E2425C" stop-opacity="0"/>
</radialGradient>
<linearGradient id="paint2_linear_43_1217" x1="28.25" y1="5.5" x2="2" y2="30" gradientUnits="userSpaceOnUse">
<stop stop-color="#5BD066"/>
<stop offset="1" stop-color="#27B43E"/>
</linearGradient>
</defs>
</svg>
