<svg width="56" height="56" viewBox="0 0 56 56" fill="none" xmlns="http://www.w3.org/2000/svg">
  <path d="M17.7903 10.3808C22.1695 8.62858 24.7818 7.58334 28 7.58334C31.2182 7.58334 33.8305 8.62858 38.2097 10.3808L45.1385 13.1523C47.3658 14.0432 49.1698 14.7648 50.4082 15.414C51.035 15.7426 51.6421 16.1151 52.1103 16.5642C52.5913 17.0256 53.0833 17.7254 53.0833 18.6667C53.0833 19.608 52.5913 20.3078 52.1103 20.7692C51.6421 21.2182 51.035 21.5907 50.4082 21.9193C49.1698 22.5686 47.3658 23.2901 45.1385 24.181L38.2096 26.9526C33.8305 28.7048 31.2182 29.75 28 29.75C24.7818 29.75 22.1695 28.7048 17.7903 26.9526L10.8615 24.1811C8.63419 23.2901 6.83013 22.5686 5.59174 21.9193C4.96501 21.5907 4.35785 21.2182 3.88967 20.7692C3.40863 20.3078 2.91666 19.608 2.91666 18.6667C2.91666 17.7254 3.40863 17.0256 3.88967 16.5642C4.35785 16.1151 4.96501 15.7426 5.59174 15.414C6.83014 14.7648 8.63419 14.0432 10.8616 13.1523L17.7903 10.3808Z" fill="#2759AE" />
  <path opacity="0.7" d="M5.83912 26.7009L5.83097 26.6938C5.11143 26.0526 4.00776 26.1134 3.36368 26.8314C2.7183 27.5509 2.77906 28.658 3.49851 29.3033C3.49851 29.3033 3.49778 29.3027 4.66635 28L3.49851 29.3033L3.50101 29.3056L3.50511 29.3092L3.51591 29.3188L3.54788 29.3467C3.57381 29.3692 3.60897 29.3992 3.65337 29.4363C3.74216 29.5104 3.86792 29.6127 4.03067 29.7384C4.35614 29.9899 4.82981 30.3358 5.45179 30.7391C6.69568 31.5458 8.53405 32.5835 10.967 33.5567L17.5201 36.1779L17.79 36.2859C22.1692 38.0381 24.7815 39.0833 27.9997 39.0833C31.2179 39.0833 33.8302 38.0381 38.2094 36.2859L38.4793 36.1779L45.0323 33.5567C47.4653 32.5835 49.3037 31.5458 50.5476 30.7391C51.1695 30.3358 51.6432 29.9899 51.9687 29.7384C52.1314 29.6127 52.2572 29.5104 52.346 29.4363C52.3904 29.3992 52.4255 29.3692 52.4515 29.3467L52.4835 29.3188L52.4942 29.3092L52.4983 29.3056L52.5016 29.3027C53.221 28.6573 53.2811 27.5509 52.6357 26.8314C51.9916 26.1135 50.8884 26.0522 50.1689 26.6934L50.1651 26.6967L50.1602 26.7009C50.15 26.7098 50.1308 26.7262 50.1028 26.7496C50.0468 26.7964 49.9554 26.871 49.8285 26.969C49.5748 27.1651 49.1796 27.4547 48.6432 27.8026C47.5702 28.4985 45.9332 29.4267 43.7325 30.307L37.1794 32.9283C32.4548 34.8181 30.474 35.5833 27.9997 35.5833C25.5254 35.5833 23.5446 34.8181 18.82 32.9283L12.2669 30.307C10.0661 29.4267 8.42919 28.4985 7.35621 27.8026C6.81975 27.4547 6.4246 27.1651 6.17085 26.969C6.04399 26.871 5.95255 26.7964 5.89653 26.7496C5.86853 26.7262 5.84939 26.7098 5.83912 26.7009Z" fill="#2759AE" />
  <path opacity="0.4" d="M5.83058 36.1647C5.11104 35.5234 4.00777 35.5846 3.36368 36.3026C2.7183 37.0221 2.77906 38.1291 3.49851 38.7745L3.50101 38.7768L3.50512 38.7804L3.51591 38.79L3.54788 38.8179C3.57381 38.8404 3.60897 38.8704 3.65337 38.9075C3.74216 38.9816 3.86792 39.0838 4.03067 39.2096C4.35614 39.4611 4.82981 39.807 5.45179 40.2103C6.69568 41.017 8.53405 42.0547 10.967 43.0279L17.5201 45.6491L17.79 45.7571C22.1692 47.5093 24.7815 48.5545 27.9997 48.5545C31.2179 48.5545 33.8302 47.5093 38.2094 45.7571L38.4793 45.6491L45.0323 43.0279C47.4653 42.0547 49.3037 41.017 50.5476 40.2103C51.1695 39.807 51.6432 39.4611 51.9687 39.2096C52.1314 39.0838 52.2572 38.9816 52.346 38.9075C52.3904 38.8704 52.4255 38.8404 52.4515 38.8179L52.4835 38.79L52.4942 38.7804L52.4983 38.7768L52.5016 38.7739C53.221 38.1285 53.2811 37.0221 52.6357 36.3026C51.9916 35.5847 50.8884 35.5234 50.1689 36.1646L50.1651 36.1679L50.1602 36.1721C50.15 36.181 50.1308 36.1974 50.1028 36.2208C50.0468 36.2676 49.9554 36.3422 49.8285 36.4402C49.5748 36.6363 49.1796 36.9259 48.6432 37.2738C47.5702 37.9697 45.9332 38.8979 43.7325 39.7782L37.1794 42.3995C32.4548 44.2893 30.474 45.0545 27.9997 45.0545C25.5254 45.0545 23.5446 44.2893 18.82 42.3995L12.2669 39.7782C10.0661 38.8979 8.42919 37.9697 7.35621 37.2738C6.81975 36.9259 6.4246 36.6363 6.17085 36.4402C6.04399 36.3422 5.95255 36.2676 5.89653 36.2208C5.86853 36.1974 5.84939 36.181 5.83912 36.1721L5.83058 36.1647Z" fill="#2759AE" />
</svg>