<svg width="56" height="56" viewBox="0 0 56 56" fill="none" xmlns="http://www.w3.org/2000/svg">
  <path opacity="0.5" d="M49 37.3293V23.3293C49 16.7296 49 13.4298 46.9497 11.3795C45.1569 9.58665 42.4084 9.36159 37.3333 9.33334H18.6667C13.5916 9.36159 10.8431 9.58665 9.05025 11.3795C7 13.4298 7 16.7296 7 23.3293V37.3293C7 43.929 7 47.2288 9.05025 49.279C11.1005 51.3293 14.4003 51.3293 21 51.3293H35C41.5997 51.3293 44.8995 51.3293 46.9497 49.279C49 47.2288 49 43.929 49 37.3293Z" fill="#2759AE" />
  <path d="M18.6667 8.16666C18.6667 6.23366 20.2337 4.66666 22.1667 4.66666H33.8333C35.7663 4.66666 37.3333 6.23366 37.3333 8.16666V10.5C37.3333 12.433 35.7663 14 33.8333 14H22.1667C20.2337 14 18.6667 12.433 18.6667 10.5V8.16666Z" fill="#2759AE" />
  <path fill-rule="evenodd" clip-rule="evenodd" d="M36.2794 24.4726C36.9388 25.1792 36.9006 26.2866 36.1941 26.946L26.1941 36.2793C25.5217 36.9069 24.4783 36.9069 23.8059 36.2793L19.8059 32.546C19.0994 31.8866 19.0612 30.7792 19.7207 30.0726C20.3801 29.366 21.4875 29.3279 22.1941 29.9873L25 32.6062L33.8059 24.3873C34.5125 23.7279 35.6199 23.766 36.2794 24.4726Z" fill="#2759AE" />
</svg>