<svg width="56" height="56" viewBox="0 0 56 56" fill="none" xmlns="http://www.w3.org/2000/svg">
  <path d="M19.652 48.109C23.7485 50.2587 25.7967 51.3336 28 51.3336V28.0003L6.15537 16.5031C6.12322 16.5548 6.09163 16.607 6.0606 16.6597C4.66667 19.0268 4.66667 21.9725 4.66667 27.8638V28.1367C4.66667 34.028 4.66667 36.9737 6.0606 39.3409C7.45452 41.708 9.9648 43.0254 14.9854 45.6601L19.652 48.109Z" fill="#2759AE" />
  <path opacity="0.7" d="M41.0139 10.3402L36.3472 7.89125C32.2508 5.74152 30.2025 4.66666 27.9992 4.66666C25.7959 4.66666 23.7477 5.74152 19.6513 7.89124L14.9846 10.3402C10.0758 12.9162 7.56679 14.2329 6.15462 16.5028L27.9992 28L49.8439 16.5028C48.4317 14.2329 45.9227 12.9162 41.0139 10.3402Z" fill="#2759AE" />
  <path opacity="0.5" d="M49.9394 16.6597C49.9084 16.607 49.8768 16.5548 49.8446 16.5031L28 28.0003V51.3336C30.2033 51.3336 32.2515 50.2587 36.348 48.109L41.0147 45.66C46.0352 43.0254 48.5455 41.708 49.9394 39.3409C51.3333 36.9737 51.3333 34.028 51.3333 28.1367V27.8638C51.3333 21.9725 51.3333 19.0268 49.9394 16.6597Z" fill="#2759AE" />
  <path d="M14.7545 10.4622C14.8311 10.422 14.9083 10.3815 14.9861 10.3407L18.471 8.51187L39.7061 20.1912L49.0948 15.4969C49.4161 15.8607 49.6953 16.2441 49.9402 16.6599C50.2892 17.2526 50.5508 17.8815 50.7469 18.5839L41.4174 23.2487V30.3338C41.4174 31.3003 40.6339 32.0838 39.6674 32.0838C38.7009 32.0838 37.9174 31.3003 37.9174 30.3338V24.9987L29.7507 29.082V51.1098C29.1513 51.2591 28.5814 51.3338 28.0007 51.3338C27.4201 51.3338 26.8502 51.2591 26.2507 51.1098V29.082L5.25456 18.5839C5.45068 17.8815 5.71231 17.2526 6.06133 16.6599C6.30616 16.2441 6.58543 15.8607 6.90669 15.4969L28.0007 26.0439L35.9019 22.0933L14.7545 10.4622Z" fill="#2759AE" />
</svg>