<svg width="56" height="56" viewBox="0 0 56 56" fill="none" xmlns="http://www.w3.org/2000/svg">
  <path d="M47.2958 37.9515L48.942 28.4321C49.3532 26.0545 47.5248 23.8798 45.1145 23.8798H33.0253C31.8271 23.8798 30.9147 22.8043 31.1087 21.6206L32.6549 12.1833C32.9061 10.6501 32.8344 9.08132 32.4443 7.57755C32.1211 6.33182 31.16 5.33154 29.896 4.92548L29.5577 4.81682C28.7938 4.57141 27.96 4.62852 27.2398 4.97557C26.4471 5.35758 25.8671 6.05437 25.6521 6.88306L24.5421 11.1621C24.189 12.5235 23.6745 13.8377 23.0112 15.0794C22.0421 16.8937 20.5436 18.3457 18.9861 19.6879L15.629 22.5808C14.6825 23.3964 14.1854 24.618 14.2931 25.8636L16.1881 47.7798C16.362 49.7901 18.0427 51.3333 20.0582 51.3333H30.9049C39.028 51.3333 45.9604 45.6736 47.2958 37.9515Z" fill="#2759AE" />
  <path opacity="0.5" fill-rule="evenodd" clip-rule="evenodd" d="M6.92455 22.1318C7.86083 22.0914 8.66276 22.7958 8.74349 23.7295L11.0106 49.948C11.1562 51.6322 9.82959 53.0837 8.13565 53.0837C6.54008 53.0837 5.25 51.7893 5.25 50.1968V23.8802C5.25 22.9431 5.98827 22.1722 6.92455 22.1318Z" fill="#2759AE" />
</svg>